M48
METRIC,LZ,000.000
;FILE_FORMAT=3:3
;TYPE=PLATED
;Layer: PTH_Through
;EasyEDA v6.5.57, 2026-08-14 14:16:02
;98996994a3da465494a423476e9be5ad,2865ae9118a24060a17af6d01c9bcc73,10
;Gerber Generator version 0.2
;Holesize 1 = 0.306 mm
T01C0.306
;Holesize 2 = 0.310 mm
T02C0.310
;Holesize 3 = 1.000 mm
T03C1.000
;Holesize 4 = 1.021 mm
T04C1.021
;Holesize 5 = 1.101 mm
T05C1.101
;Holesize 6 = 1.501 mm
T06C1.501
;Holesize 7 = 2.000 mm
T07C2.000
%
G05
G90
T01
X-004191Y012192
X-004445Y010668
X-005461Y009271
X-006350Y006223
X-012065Y005969
X-010160Y002794
X-007874Y003810
T02
X-022606Y018288
X-022606Y015875
X-012573Y013843
X-015875Y013462
X-017907Y-000254
X-014097Y-000254
X-003556Y-000381
X-003556Y001270
X-000762Y003556
X-000762Y007493
X-010541Y011557
X-008255Y011557
X-010541Y007239
X-008382Y007239
X-010541Y010033
X-008382Y010033
X-010541Y008636
X-008382Y008636
X-009525Y010795
X-009525Y009398
X-009525Y008128
X-018923Y014224
X-018796Y011176
X-018161Y012700
X-019304Y021463
X-021209Y015113
X-015875Y-000254
X-020193Y-000254
X-000889Y014351
X-004572Y007366
X-005207Y008001
X-014224Y015113
X-016891Y008636
X-020701Y018288
X-015875Y015367
X-014859Y009779
X-007112Y015494
X-002032Y015240
X-002159Y011557
X-008763Y014478
T03
X-011557Y-000127
X-009017Y-000127
X-006477Y-000127
T04
X-006477Y-000127
X-009017Y-000127
X-011557Y-000127
T05
X-016637Y017526
X-016637Y020066
X-014097Y017526
X-014097Y020066
X-011557Y017526
X-011557Y020066
X-009017Y017526
X-009017Y020066
X-006477Y017526
X-006477Y020066
X-003937Y020066
T06
X-021717Y007449G85X-021717Y007443
X-021717Y012449G85X-021717Y012443
T07
X-001016Y000381
X-021971Y020320
X-021971Y000381
X-001016Y020320
M30
