G04 Layer: TopLayer*
G04 EasyEDA v6.5.57, 2026-08-14 14:16:02*
G04 98996994a3da465494a423476e9be5ad,2865ae9118a24060a17af6d01c9bcc73,10*
G04 Gerber Generator version 0.2*
G04 Scale: 100 percent, Rotated: No, Reflected: No *
G04 Dimensions in millimeters *
G04 leading zeros omitted , absolute positions ,4 integer and 5 decimal *
%FSLAX45Y45*%
%MOMM*%

%AMMACRO1*21,1,$1,$2,0,0,$3*%
%ADD10C,0.2540*%
%ADD11R,1.0000X0.8999*%
%ADD12MACRO1,0.864X0.8065X90.0000*%
%ADD13MACRO1,0.864X0.8065X0.0000*%
%ADD14R,0.8640X0.8065*%
%ADD15R,0.0186X0.8065*%
%ADD16MACRO1,2.7X1.635X0.0000*%
%ADD17R,2.7000X1.6350*%
%ADD18R,0.8000X0.9000*%
%ADD19R,0.9000X0.8000*%
%ADD20MACRO1,0.864X0.8065X-90.0000*%
%ADD21R,3.7000X5.7000*%
%ADD22R,0.2500X0.6000*%
%ADD23R,0.6000X0.2500*%
%ADD24R,0.8000X0.8000*%
%ADD25C,4.0000*%
%ADD26C,1.5748*%
%ADD27R,1.5748X1.5748*%
%ADD28C,1.7000*%
%ADD29C,2.0000*%
%ADD30O,1.999996X2.999994*%
%ADD31C,0.6100*%
%ADD32C,0.6200*%

%LPD*%
G36*
X-1721866Y762508D02*
G01*
X-1724964Y762965D01*
X-1727758Y764387D01*
X-1729993Y766572D01*
X-1812442Y876503D01*
X-1814068Y879754D01*
X-1814474Y883310D01*
X-1813560Y886815D01*
X-1811528Y889812D01*
X-1674875Y1026464D01*
X-1671421Y1029309D01*
X-1667408Y1030427D01*
X-1663344Y1029868D01*
X-1659839Y1027684D01*
X-1657451Y1024331D01*
X-1656588Y1020267D01*
X-1656588Y1015237D01*
X-1655876Y1008887D01*
X-1653997Y1003452D01*
X-1650898Y998524D01*
X-1646834Y994460D01*
X-1641906Y991362D01*
X-1636471Y989431D01*
X-1630121Y988720D01*
X-1544878Y988720D01*
X-1538528Y989431D01*
X-1533093Y991362D01*
X-1528165Y994460D01*
X-1524101Y998524D01*
X-1521002Y1003452D01*
X-1519123Y1008887D01*
X-1518412Y1015237D01*
X-1518412Y1065276D01*
X-1517599Y1069136D01*
X-1515414Y1072438D01*
X-1511858Y1075994D01*
X-1508556Y1078230D01*
X-1504645Y1078992D01*
X-1434287Y1078992D01*
X-1430070Y1078077D01*
X-1426616Y1075537D01*
X-1424533Y1071778D01*
X-1424178Y1067460D01*
X-1425651Y1063447D01*
X-1427175Y1061008D01*
X-1429105Y1055522D01*
X-1429816Y1049223D01*
X-1429816Y970381D01*
X-1429105Y964031D01*
X-1427175Y958596D01*
X-1424127Y953668D01*
X-1420012Y949604D01*
X-1418132Y948385D01*
X-1415186Y945591D01*
X-1413560Y941832D01*
X-1413560Y937768D01*
X-1415186Y934008D01*
X-1418132Y931214D01*
X-1420012Y929995D01*
X-1424127Y925931D01*
X-1427175Y921003D01*
X-1429105Y915568D01*
X-1429816Y909218D01*
X-1429816Y836168D01*
X-1430578Y832256D01*
X-1432763Y829005D01*
X-1436065Y826769D01*
X-1439976Y826008D01*
X-1455623Y826008D01*
X-1459534Y826769D01*
X-1462836Y829005D01*
X-1465021Y832256D01*
X-1465783Y836168D01*
X-1465783Y884123D01*
X-1466494Y890422D01*
X-1468424Y895908D01*
X-1471472Y900785D01*
X-1475587Y904900D01*
X-1480464Y907999D01*
X-1485950Y909878D01*
X-1492250Y910590D01*
X-1581150Y910590D01*
X-1587449Y909878D01*
X-1592935Y907999D01*
X-1597812Y904900D01*
X-1601927Y900785D01*
X-1604975Y895908D01*
X-1606905Y890422D01*
X-1607616Y884123D01*
X-1607616Y805281D01*
X-1606905Y798931D01*
X-1604975Y793496D01*
X-1601927Y788568D01*
X-1597812Y784504D01*
X-1595932Y783285D01*
X-1592986Y780542D01*
X-1591411Y776833D01*
X-1591360Y772769D01*
X-1592884Y769061D01*
X-1595780Y766216D01*
X-1598828Y764184D01*
X-1601520Y762914D01*
X-1604416Y762508D01*
G37*

%LPD*%
G36*
X-1233932Y521411D02*
G01*
X-1237843Y522173D01*
X-1241094Y524408D01*
X-1243330Y527710D01*
X-1244092Y531571D01*
X-1244092Y594664D01*
X-1243330Y598525D01*
X-1241094Y601827D01*
X-1201064Y641858D01*
X-1197254Y646633D01*
X-1194765Y651865D01*
X-1193495Y657402D01*
X-1193292Y662787D01*
X-1192428Y666597D01*
X-1190193Y669747D01*
X-1186942Y671830D01*
X-1183132Y672592D01*
X-1153668Y672592D01*
X-1149654Y671779D01*
X-1146352Y669493D01*
X-1144168Y666038D01*
X-1143508Y662076D01*
X-1144473Y658114D01*
X-1146860Y654862D01*
X-1148842Y653135D01*
X-1161135Y640842D01*
X-1164945Y636066D01*
X-1167434Y630834D01*
X-1168704Y625195D01*
X-1168908Y621995D01*
X-1168908Y586435D01*
X-1169670Y582574D01*
X-1171905Y579272D01*
X-1226769Y524408D01*
X-1230020Y522173D01*
G37*

%LPD*%
G36*
X-2292400Y228600D02*
G01*
X-2296109Y229260D01*
X-2299258Y231241D01*
X-2301494Y234238D01*
X-2310333Y251866D01*
X-2311400Y256387D01*
X-2311400Y379730D01*
X-2312009Y382117D01*
X-2398572Y542899D01*
X-2399487Y545236D01*
X-2399792Y547725D01*
X-2399792Y872591D01*
X-2399030Y876503D01*
X-2396794Y879805D01*
X-2288997Y987602D01*
X-2285695Y989837D01*
X-2281783Y990600D01*
X-1935480Y990600D01*
X-1932381Y990142D01*
X-1929587Y988720D01*
X-1927352Y986536D01*
X-1740712Y737717D01*
X-1738884Y736600D01*
X-1309116Y736600D01*
X-1307388Y737311D01*
X-1295095Y749554D01*
X-1290167Y753465D01*
X-1286662Y755345D01*
X-1280464Y760476D01*
X-1268526Y772363D01*
X-1209344Y823061D01*
X-1206246Y824890D01*
X-1202740Y825500D01*
X-1164894Y825500D01*
X-1161237Y824839D01*
X-1158087Y822858D01*
X-1155801Y819912D01*
X-1154785Y816356D01*
X-1150721Y775055D01*
X-1150721Y713486D01*
X-1151483Y709574D01*
X-1153668Y706323D01*
X-1156970Y704088D01*
X-1160881Y703326D01*
X-1209243Y703224D01*
X-1215542Y702513D01*
X-1221028Y700582D01*
X-1225905Y697484D01*
X-1230020Y693420D01*
X-1233068Y688492D01*
X-1234998Y683056D01*
X-1235710Y676706D01*
X-1235811Y647954D01*
X-1237284Y644702D01*
X-1239824Y642112D01*
X-1242720Y640080D01*
X-1249680Y633120D01*
X-1257300Y622300D01*
X-1269288Y610311D01*
X-1270000Y608584D01*
X-1270000Y416559D01*
X-1270762Y412648D01*
X-1272997Y409397D01*
X-1276248Y407162D01*
X-1280160Y406400D01*
X-1357884Y406400D01*
X-1359611Y405688D01*
X-1379677Y385622D01*
X-1381912Y383895D01*
X-1386281Y379374D01*
X-1387703Y377596D01*
X-1419402Y345897D01*
X-1422704Y343662D01*
X-1426616Y342900D01*
X-1735683Y342900D01*
X-1739595Y343662D01*
X-1742897Y345897D01*
X-1777288Y380288D01*
X-1779016Y381000D01*
X-2183231Y381000D01*
X-2185466Y380492D01*
X-2208885Y368757D01*
X-2209800Y367487D01*
X-2209800Y258216D01*
X-2210562Y254304D01*
X-2212797Y251002D01*
X-2232202Y231597D01*
X-2235504Y229362D01*
X-2239416Y228600D01*
G37*

%LPD*%
G36*
X-1291183Y-114300D02*
G01*
X-1295095Y-113537D01*
X-1298397Y-111302D01*
X-1330502Y-79197D01*
X-1332738Y-75895D01*
X-1333500Y-71983D01*
X-1333500Y148183D01*
X-1332738Y152095D01*
X-1330502Y155397D01*
X-1219911Y265988D01*
X-1219200Y267716D01*
X-1219200Y491083D01*
X-1218438Y494995D01*
X-1216202Y498297D01*
X-1143711Y570788D01*
X-1143000Y572516D01*
X-1143000Y615950D01*
X-1142238Y619861D01*
X-1140002Y623112D01*
X-1136751Y625348D01*
X-1132840Y626110D01*
X-1113790Y626110D01*
X-1105763Y626922D01*
X-1100632Y628446D01*
X-1097686Y628904D01*
X-1064006Y628904D01*
X-1060196Y628142D01*
X-1056944Y626008D01*
X-1054709Y622808D01*
X-1053846Y618998D01*
X-1053642Y607161D01*
X-1054608Y597916D01*
X-1054608Y324408D01*
X-1055370Y320548D01*
X-1057605Y317246D01*
X-1059180Y315620D01*
X-1064818Y307594D01*
X-1068984Y298704D01*
X-1071524Y289204D01*
X-1072388Y279400D01*
X-1071524Y269595D01*
X-1068984Y260096D01*
X-1064818Y251206D01*
X-1059180Y243179D01*
X-1057097Y241046D01*
X-1054862Y237744D01*
X-1054100Y233883D01*
X-1054100Y-84683D01*
X-1054862Y-88595D01*
X-1057097Y-91897D01*
X-1076502Y-111302D01*
X-1079804Y-113537D01*
X-1083716Y-114300D01*
G37*

%LPD*%
G36*
X-973683Y-114300D02*
G01*
X-977595Y-113537D01*
X-980897Y-111302D01*
X-1013002Y-79197D01*
X-1015237Y-75895D01*
X-1016000Y-71983D01*
X-1016000Y213715D01*
X-1015288Y217424D01*
X-1013307Y220573D01*
X-1010310Y222808D01*
X-996696Y226415D01*
X-987806Y230581D01*
X-979779Y236220D01*
X-972819Y243179D01*
X-967181Y251206D01*
X-963015Y260096D01*
X-960475Y269595D01*
X-959612Y279400D01*
X-960475Y289204D01*
X-963015Y298704D01*
X-967181Y307594D01*
X-972819Y315620D01*
X-974394Y317246D01*
X-976630Y320548D01*
X-977392Y324408D01*
X-977392Y561492D01*
X-976376Y570433D01*
X-976376Y597052D01*
X-976121Y600049D01*
X-976376Y618744D01*
X-975614Y622604D01*
X-973429Y625906D01*
X-970127Y628142D01*
X-966216Y628904D01*
X-913384Y628904D01*
X-909472Y628142D01*
X-906170Y625906D01*
X-903986Y622604D01*
X-903224Y618744D01*
X-903376Y535076D01*
X-902614Y527050D01*
X-900430Y519836D01*
X-896874Y513181D01*
X-891743Y506933D01*
X-878027Y493217D01*
X-875842Y490016D01*
X-840638Y407771D01*
X-839825Y404469D01*
X-840130Y401116D01*
X-842924Y390804D01*
X-843787Y381000D01*
X-842924Y371195D01*
X-840384Y361696D01*
X-836218Y352806D01*
X-830580Y344779D01*
X-823620Y337820D01*
X-815594Y332181D01*
X-809904Y329539D01*
X-806856Y327406D01*
X-804824Y324307D01*
X-775512Y255930D01*
X-774700Y251917D01*
X-774700Y-97383D01*
X-775462Y-101295D01*
X-777697Y-104597D01*
X-784402Y-111302D01*
X-787704Y-113537D01*
X-791616Y-114300D01*
G37*

%LPD*%
G36*
X-719683Y-114300D02*
G01*
X-723595Y-113537D01*
X-726897Y-111302D01*
X-733602Y-104597D01*
X-735838Y-101295D01*
X-736600Y-97383D01*
X-736600Y265633D01*
X-737057Y267665D01*
X-760780Y321056D01*
X-761593Y324459D01*
X-761288Y327914D01*
X-759764Y331063D01*
X-757326Y333502D01*
X-751179Y337820D01*
X-744220Y344779D01*
X-738581Y352806D01*
X-734415Y361696D01*
X-731875Y371195D01*
X-731012Y381000D01*
X-731875Y390804D01*
X-734415Y400304D01*
X-738581Y409194D01*
X-744220Y417220D01*
X-745794Y418846D01*
X-748030Y422148D01*
X-748792Y426008D01*
X-748792Y456692D01*
X-749604Y464718D01*
X-751789Y471932D01*
X-755345Y478637D01*
X-760476Y484835D01*
X-823214Y547624D01*
X-825398Y550926D01*
X-826160Y554786D01*
X-826160Y600049D01*
X-825753Y618947D01*
X-824890Y622808D01*
X-822706Y626008D01*
X-819403Y628142D01*
X-815594Y628904D01*
X-794461Y628904D01*
X-791514Y628446D01*
X-786638Y626973D01*
X-778611Y626160D01*
X-744677Y626160D01*
X-740816Y625398D01*
X-737514Y623214D01*
X-723493Y609092D01*
X-546303Y381254D01*
X-523697Y358597D01*
X-521462Y355295D01*
X-520700Y351383D01*
X-520700Y-84683D01*
X-521462Y-88595D01*
X-523697Y-91897D01*
X-543102Y-111302D01*
X-546404Y-113537D01*
X-550316Y-114300D01*
G37*

%LPD*%
G36*
X-2309164Y-126492D02*
G01*
X-2313025Y-125730D01*
X-2316327Y-123494D01*
X-2396794Y-43027D01*
X-2399030Y-39725D01*
X-2399792Y-35864D01*
X-2399792Y450189D01*
X-2398826Y454558D01*
X-2396083Y458063D01*
X-2392121Y460044D01*
X-2387650Y460197D01*
X-2383586Y458368D01*
X-2380691Y455015D01*
X-2338527Y376732D01*
X-2337612Y374396D01*
X-2337308Y371906D01*
X-2337308Y254558D01*
X-2336596Y248259D01*
X-2334514Y242316D01*
X-2322118Y217474D01*
X-2318918Y212496D01*
X-2314803Y208381D01*
X-2309926Y205333D01*
X-2304440Y203403D01*
X-2298141Y202692D01*
X-2235504Y202692D01*
X-2229459Y203352D01*
X-2223973Y205282D01*
X-2219045Y208381D01*
X-2216658Y210464D01*
X-2191664Y235458D01*
X-2187905Y240182D01*
X-2186127Y243535D01*
X-2183739Y246430D01*
X-2180488Y248310D01*
X-2176729Y248818D01*
X-2173071Y248005D01*
X-2169972Y245871D01*
X-2165502Y241401D01*
X-2160625Y238302D01*
X-2155139Y236423D01*
X-2148840Y235712D01*
X-2069338Y235712D01*
X-2062988Y236423D01*
X-2057552Y238302D01*
X-2052624Y241401D01*
X-2048560Y245465D01*
X-2045462Y250393D01*
X-2043531Y255828D01*
X-2042363Y260705D01*
X-2040077Y263601D01*
X-2036927Y265531D01*
X-2033320Y266192D01*
X-1993747Y266192D01*
X-1989886Y265430D01*
X-1986584Y263194D01*
X-1984400Y259943D01*
X-1983587Y256032D01*
X-1983587Y236169D01*
X-1982876Y229819D01*
X-1980996Y224383D01*
X-1977898Y219456D01*
X-1973834Y215392D01*
X-1968906Y212293D01*
X-1963470Y210413D01*
X-1957120Y209702D01*
X-1878279Y209702D01*
X-1871929Y210413D01*
X-1866493Y212293D01*
X-1861566Y215392D01*
X-1857502Y219456D01*
X-1854403Y224383D01*
X-1852523Y229819D01*
X-1851812Y236169D01*
X-1851812Y315010D01*
X-1852523Y321360D01*
X-1854403Y326796D01*
X-1857502Y331724D01*
X-1861566Y335788D01*
X-1865528Y339344D01*
X-1867052Y343408D01*
X-1866798Y347726D01*
X-1864715Y351536D01*
X-1861261Y354177D01*
X-1857044Y355092D01*
X-1792935Y355092D01*
X-1789074Y354330D01*
X-1785772Y352094D01*
X-1758442Y324764D01*
X-1753666Y320954D01*
X-1748434Y318465D01*
X-1742795Y317195D01*
X-1739595Y316992D01*
X-1422704Y316992D01*
X-1416659Y317652D01*
X-1411173Y319582D01*
X-1406245Y322681D01*
X-1403858Y324764D01*
X-1351127Y377494D01*
X-1347825Y379730D01*
X-1343964Y380492D01*
X-1270558Y380492D01*
X-1264259Y381203D01*
X-1258620Y383184D01*
X-1254810Y383743D01*
X-1251051Y382828D01*
X-1247902Y380593D01*
X-1245819Y377342D01*
X-1245108Y373583D01*
X-1245108Y281635D01*
X-1245870Y277774D01*
X-1248105Y274472D01*
X-1351635Y170942D01*
X-1355445Y166166D01*
X-1357934Y160934D01*
X-1359204Y155295D01*
X-1359408Y152095D01*
X-1359408Y-75895D01*
X-1358747Y-81940D01*
X-1356817Y-87426D01*
X-1353718Y-92354D01*
X-1351635Y-94742D01*
X-1337208Y-109169D01*
X-1334973Y-112420D01*
X-1334211Y-116332D01*
X-1334973Y-120243D01*
X-1337208Y-123494D01*
X-1340510Y-125730D01*
X-1344371Y-126492D01*
G37*

%LPD*%
G36*
X-497128Y-126492D02*
G01*
X-500938Y-125730D01*
X-504240Y-123596D01*
X-506425Y-120396D01*
X-507288Y-116535D01*
X-506628Y-112725D01*
X-504545Y-109372D01*
X-500380Y-104952D01*
X-497382Y-100126D01*
X-495452Y-94640D01*
X-494792Y-88595D01*
X-494792Y355295D01*
X-495452Y361340D01*
X-497382Y366826D01*
X-500481Y371754D01*
X-502564Y374142D01*
X-527050Y398678D01*
X-703275Y625246D01*
X-705815Y628142D01*
X-730758Y653135D01*
X-733044Y655116D01*
X-737362Y657961D01*
X-740460Y661212D01*
X-741121Y663143D01*
X-743458Y661517D01*
X-747826Y660806D01*
X-825195Y660908D01*
X-831240Y660247D01*
X-836726Y658317D01*
X-841654Y655218D01*
X-844042Y653135D01*
X-856437Y640740D01*
X-859688Y638505D01*
X-863600Y637743D01*
X-867511Y638505D01*
X-870762Y640740D01*
X-883158Y653135D01*
X-887933Y656945D01*
X-893165Y659434D01*
X-898804Y660704D01*
X-902004Y660908D01*
X-977595Y660908D01*
X-983640Y660247D01*
X-989126Y658317D01*
X-994054Y655218D01*
X-996442Y653135D01*
X-1008837Y640740D01*
X-1012088Y638505D01*
X-1016000Y637743D01*
X-1019911Y638505D01*
X-1023162Y640740D01*
X-1035558Y653135D01*
X-1040333Y656945D01*
X-1045565Y659434D01*
X-1051204Y660704D01*
X-1054404Y660908D01*
X-1119632Y660908D01*
X-1123492Y661670D01*
X-1126794Y663854D01*
X-1129030Y667105D01*
X-1129792Y671017D01*
X-1129080Y674878D01*
X-1126896Y678180D01*
X-1122578Y682548D01*
X-1119632Y687324D01*
X-1117752Y692810D01*
X-1117092Y698550D01*
X-1123848Y767283D01*
X-1123899Y776732D01*
X-1124610Y783031D01*
X-1125880Y787501D01*
X-1126083Y789482D01*
X-1125524Y793851D01*
X-1124610Y796544D01*
X-1123899Y802894D01*
X-1123899Y826719D01*
X-1124610Y833069D01*
X-1125778Y836421D01*
X-1126337Y839825D01*
X-1125778Y843178D01*
X-1124610Y846531D01*
X-1123899Y852881D01*
X-1123899Y876706D01*
X-1124610Y883056D01*
X-1125778Y886460D01*
X-1126337Y889812D01*
X-1125778Y893165D01*
X-1124610Y896569D01*
X-1123899Y902868D01*
X-1123899Y926744D01*
X-1124610Y933043D01*
X-1125778Y936447D01*
X-1126337Y939800D01*
X-1125778Y943152D01*
X-1124610Y946556D01*
X-1123899Y952855D01*
X-1123899Y976731D01*
X-1124610Y983030D01*
X-1125778Y986434D01*
X-1126337Y989787D01*
X-1125778Y993140D01*
X-1124610Y996543D01*
X-1123899Y1002893D01*
X-1123899Y1026718D01*
X-1124610Y1033068D01*
X-1126490Y1038504D01*
X-1129588Y1043432D01*
X-1133703Y1047496D01*
X-1138580Y1050594D01*
X-1144066Y1052474D01*
X-1150366Y1053185D01*
X-1178509Y1053185D01*
X-1180338Y1053338D01*
X-1208532Y1053338D01*
X-1212443Y1054100D01*
X-1215694Y1056335D01*
X-1217930Y1059586D01*
X-1218692Y1063498D01*
X-1218692Y1066038D01*
X-1217930Y1069949D01*
X-1215694Y1073200D01*
X-1212443Y1075436D01*
X-1208532Y1076198D01*
X-1180338Y1076198D01*
X-1177848Y1076401D01*
X-1150366Y1076401D01*
X-1144066Y1077112D01*
X-1138580Y1078992D01*
X-1133703Y1082090D01*
X-1129588Y1086205D01*
X-1126490Y1091082D01*
X-1124610Y1096568D01*
X-1123899Y1102868D01*
X-1123899Y1126744D01*
X-1124610Y1133043D01*
X-1126490Y1138529D01*
X-1129588Y1143406D01*
X-1133703Y1147521D01*
X-1138580Y1150569D01*
X-1144066Y1152499D01*
X-1150366Y1153210D01*
X-1177747Y1153210D01*
X-1180338Y1153414D01*
X-1221587Y1153414D01*
X-1225499Y1154176D01*
X-1228801Y1156411D01*
X-1239062Y1166672D01*
X-1241450Y1170686D01*
X-1245463Y1173022D01*
X-1311960Y1239520D01*
X-1318158Y1244650D01*
X-1324864Y1248206D01*
X-1332077Y1250391D01*
X-1340104Y1251204D01*
X-1342440Y1251204D01*
X-1346504Y1252067D01*
X-1349908Y1254455D01*
X-1352042Y1258011D01*
X-1354124Y1263904D01*
X-1357172Y1268831D01*
X-1361287Y1272895D01*
X-1366164Y1275994D01*
X-1371650Y1277924D01*
X-1377950Y1278636D01*
X-1466850Y1278636D01*
X-1473149Y1277924D01*
X-1478635Y1275994D01*
X-1483512Y1272895D01*
X-1487627Y1268831D01*
X-1490675Y1263904D01*
X-1492605Y1258468D01*
X-1493164Y1253286D01*
X-1494231Y1249730D01*
X-1496517Y1246835D01*
X-1499666Y1244904D01*
X-1503273Y1244244D01*
X-1509268Y1244244D01*
X-1513332Y1245108D01*
X-1516735Y1247495D01*
X-1518869Y1251051D01*
X-1521002Y1257147D01*
X-1524101Y1262075D01*
X-1528165Y1266139D01*
X-1533093Y1269238D01*
X-1538528Y1271168D01*
X-1544878Y1271879D01*
X-1630121Y1271879D01*
X-1636471Y1271168D01*
X-1641906Y1269238D01*
X-1647647Y1265631D01*
X-1651660Y1264158D01*
X-1655978Y1264513D01*
X-1659737Y1266596D01*
X-1662277Y1270050D01*
X-1663192Y1274267D01*
X-1663192Y1472692D01*
X-1664004Y1480718D01*
X-1666189Y1487932D01*
X-1669745Y1494637D01*
X-1674875Y1500835D01*
X-1763064Y1589024D01*
X-1769262Y1594154D01*
X-1775968Y1597710D01*
X-1783181Y1599895D01*
X-1791207Y1600708D01*
X-1849932Y1600708D01*
X-1854149Y1601622D01*
X-1857603Y1604162D01*
X-1859686Y1607921D01*
X-1860042Y1612239D01*
X-1858568Y1616252D01*
X-1854962Y1621993D01*
X-1853031Y1627428D01*
X-1851863Y1632305D01*
X-1849577Y1635201D01*
X-1846427Y1637131D01*
X-1842820Y1637792D01*
X-1740407Y1637792D01*
X-1732381Y1638604D01*
X-1725168Y1640789D01*
X-1718462Y1644345D01*
X-1714144Y1647901D01*
X-1711096Y1649628D01*
X-1707642Y1650187D01*
X-1704187Y1649577D01*
X-1695246Y1646275D01*
X-1681378Y1643125D01*
X-1667256Y1641754D01*
X-1653032Y1642211D01*
X-1639011Y1644497D01*
X-1625396Y1648510D01*
X-1612392Y1654302D01*
X-1600250Y1661668D01*
X-1589125Y1670507D01*
X-1579270Y1680718D01*
X-1570786Y1692097D01*
X-1563776Y1704492D01*
X-1558442Y1717649D01*
X-1554835Y1731416D01*
X-1553057Y1745488D01*
X-1553057Y1759712D01*
X-1554835Y1773783D01*
X-1558442Y1787550D01*
X-1563776Y1800707D01*
X-1570786Y1813102D01*
X-1579270Y1824482D01*
X-1589125Y1834692D01*
X-1600250Y1843532D01*
X-1612392Y1850898D01*
X-1625396Y1856638D01*
X-1639011Y1860702D01*
X-1653032Y1862988D01*
X-1667256Y1863445D01*
X-1681378Y1862074D01*
X-1695246Y1858924D01*
X-1708607Y1853996D01*
X-1721205Y1847443D01*
X-1732838Y1839315D01*
X-1743354Y1829765D01*
X-1752549Y1818944D01*
X-1760321Y1807006D01*
X-1766468Y1794205D01*
X-1770938Y1780743D01*
X-1773682Y1766773D01*
X-1774596Y1752600D01*
X-1773682Y1738426D01*
X-1771497Y1727098D01*
X-1771599Y1722678D01*
X-1773580Y1718716D01*
X-1777136Y1715973D01*
X-1781454Y1715007D01*
X-1842820Y1715007D01*
X-1846427Y1715668D01*
X-1849577Y1717598D01*
X-1851863Y1720494D01*
X-1853031Y1725371D01*
X-1854962Y1730806D01*
X-1858060Y1735734D01*
X-1862124Y1739798D01*
X-1867052Y1742897D01*
X-1873148Y1745030D01*
X-1876704Y1747164D01*
X-1879092Y1750568D01*
X-1879955Y1754632D01*
X-1879955Y1783334D01*
X-1879396Y1786737D01*
X-1877720Y1789684D01*
X-1875180Y1791970D01*
X-1871065Y1794560D01*
X-1867001Y1798624D01*
X-1863902Y1803552D01*
X-1862023Y1808988D01*
X-1861312Y1815338D01*
X-1861312Y1894839D01*
X-1862023Y1901139D01*
X-1863902Y1906625D01*
X-1867001Y1911502D01*
X-1871065Y1915617D01*
X-1875993Y1918665D01*
X-1881428Y1920595D01*
X-1887778Y1921306D01*
X-1973021Y1921306D01*
X-1979371Y1920595D01*
X-1984806Y1918665D01*
X-1989734Y1915617D01*
X-1993798Y1911502D01*
X-1996897Y1906625D01*
X-1998776Y1901139D01*
X-1999488Y1894839D01*
X-1999488Y1815338D01*
X-1998776Y1808988D01*
X-1996897Y1803552D01*
X-1993798Y1798624D01*
X-1989734Y1794560D01*
X-1984806Y1791462D01*
X-1979371Y1789531D01*
X-1973021Y1788820D01*
X-1967331Y1788820D01*
X-1963420Y1788058D01*
X-1960168Y1785874D01*
X-1957933Y1782572D01*
X-1957171Y1778660D01*
X-1957171Y1754632D01*
X-1958035Y1750568D01*
X-1960422Y1747164D01*
X-1963978Y1745030D01*
X-1970125Y1742897D01*
X-1975002Y1739798D01*
X-1979117Y1735734D01*
X-1982165Y1730806D01*
X-1984298Y1724761D01*
X-1986432Y1721205D01*
X-1989836Y1718767D01*
X-1993900Y1717954D01*
X-1997964Y1718767D01*
X-2001367Y1721205D01*
X-2003501Y1724761D01*
X-2005634Y1730806D01*
X-2008682Y1735734D01*
X-2012797Y1739798D01*
X-2017674Y1742897D01*
X-2023160Y1744776D01*
X-2029460Y1745488D01*
X-2108962Y1745488D01*
X-2115312Y1744776D01*
X-2120747Y1742897D01*
X-2125675Y1739798D01*
X-2129739Y1735734D01*
X-2132838Y1730806D01*
X-2134768Y1725371D01*
X-2135479Y1719021D01*
X-2135479Y1633778D01*
X-2134768Y1627428D01*
X-2132838Y1621993D01*
X-2129739Y1617065D01*
X-2125675Y1613001D01*
X-2120747Y1609902D01*
X-2115312Y1608023D01*
X-2108962Y1607312D01*
X-2085187Y1607312D01*
X-2081326Y1606499D01*
X-2078024Y1604314D01*
X-2008835Y1535176D01*
X-2002637Y1530045D01*
X-1995932Y1526489D01*
X-1988718Y1524304D01*
X-1980692Y1523492D01*
X-1810918Y1523492D01*
X-1807006Y1522730D01*
X-1803704Y1520494D01*
X-1743405Y1460195D01*
X-1741170Y1456893D01*
X-1740407Y1452981D01*
X-1740407Y1074318D01*
X-1741170Y1070406D01*
X-1743405Y1067104D01*
X-1856232Y954227D01*
X-1859889Y951890D01*
X-1864156Y951280D01*
X-1868322Y952500D01*
X-1871573Y955344D01*
X-1909318Y1005687D01*
X-1913686Y1010310D01*
X-1918512Y1013561D01*
X-1923846Y1015593D01*
X-1931060Y1016508D01*
X-2285695Y1016508D01*
X-2291740Y1015847D01*
X-2297226Y1013917D01*
X-2302154Y1010818D01*
X-2304542Y1008735D01*
X-2382469Y930808D01*
X-2385720Y928573D01*
X-2389632Y927811D01*
X-2393543Y928573D01*
X-2396794Y930808D01*
X-2399030Y934110D01*
X-2399792Y937971D01*
X-2399792Y2105964D01*
X-2399030Y2109825D01*
X-2396794Y2113127D01*
X-2303627Y2206294D01*
X-2300325Y2208530D01*
X-2296464Y2209292D01*
X-78435Y2209292D01*
X-74574Y2208530D01*
X-71272Y2206294D01*
X47294Y2087727D01*
X49530Y2084425D01*
X50292Y2080564D01*
X50292Y-35864D01*
X49530Y-39725D01*
X47294Y-43027D01*
X-33172Y-123494D01*
X-36474Y-125730D01*
X-40335Y-126492D01*
G37*

%LPC*%
G36*
X-417677Y224993D02*
G01*
X-318820Y224993D01*
X-312470Y225704D01*
X-307035Y227634D01*
X-302107Y230733D01*
X-298043Y234797D01*
X-294944Y239725D01*
X-293065Y245160D01*
X-292303Y251510D01*
X-292303Y269595D01*
X-291541Y273456D01*
X-289356Y276758D01*
X-286054Y278993D01*
X-282194Y279755D01*
X-268732Y279755D01*
X-264668Y278892D01*
X-261264Y276504D01*
X-259130Y272948D01*
X-256997Y266852D01*
X-253898Y261924D01*
X-249834Y257860D01*
X-244906Y254762D01*
X-239471Y252831D01*
X-233121Y252120D01*
X-147878Y252120D01*
X-141528Y252831D01*
X-136093Y254762D01*
X-131165Y257860D01*
X-127101Y261924D01*
X-124002Y266852D01*
X-122123Y272288D01*
X-121412Y278638D01*
X-121412Y358140D01*
X-122123Y364439D01*
X-124002Y369925D01*
X-127101Y374802D01*
X-131165Y378917D01*
X-136093Y381965D01*
X-142138Y384098D01*
X-145694Y386232D01*
X-148132Y389636D01*
X-148945Y393700D01*
X-148132Y397764D01*
X-145694Y401167D01*
X-142138Y403301D01*
X-136093Y405434D01*
X-131165Y408482D01*
X-127101Y412597D01*
X-124002Y417474D01*
X-122123Y422960D01*
X-121412Y429259D01*
X-121412Y508762D01*
X-122123Y515112D01*
X-124002Y520547D01*
X-127101Y525475D01*
X-131165Y529539D01*
X-136093Y532638D01*
X-141528Y534568D01*
X-146405Y535736D01*
X-149301Y538022D01*
X-151231Y541172D01*
X-151892Y544779D01*
X-151892Y581152D01*
X-151130Y585012D01*
X-148894Y588314D01*
X-145643Y590499D01*
X-141732Y591312D01*
X-138938Y591312D01*
X-132588Y592023D01*
X-127152Y593902D01*
X-122224Y597001D01*
X-118160Y601065D01*
X-115062Y605993D01*
X-113131Y611428D01*
X-112420Y617778D01*
X-112420Y703021D01*
X-113131Y709371D01*
X-115062Y714806D01*
X-118160Y719734D01*
X-122224Y723798D01*
X-127152Y726897D01*
X-132588Y728776D01*
X-138938Y729488D01*
X-162712Y729488D01*
X-166573Y730300D01*
X-169875Y732485D01*
X-270357Y832967D01*
X-272440Y835964D01*
X-273304Y839469D01*
X-272897Y843076D01*
X-271272Y846277D01*
X-267868Y849172D01*
X-263804Y853287D01*
X-260705Y858164D01*
X-258775Y863650D01*
X-258064Y869950D01*
X-258064Y958850D01*
X-258775Y965149D01*
X-260705Y970635D01*
X-263804Y975512D01*
X-267817Y979576D01*
X-274066Y983386D01*
X-276606Y985621D01*
X-278333Y988618D01*
X-278892Y992022D01*
X-278892Y1306372D01*
X-278028Y1310436D01*
X-275640Y1313840D01*
X-272084Y1315974D01*
X-266852Y1317802D01*
X-261924Y1320901D01*
X-257860Y1324965D01*
X-254762Y1329893D01*
X-252831Y1335328D01*
X-252120Y1341678D01*
X-252120Y1426921D01*
X-252831Y1433271D01*
X-254762Y1438706D01*
X-257860Y1443634D01*
X-261924Y1447698D01*
X-266852Y1450797D01*
X-272288Y1452676D01*
X-278638Y1453388D01*
X-294132Y1453388D01*
X-298043Y1454200D01*
X-301294Y1456385D01*
X-303530Y1459687D01*
X-304292Y1463548D01*
X-304292Y1496314D01*
X-303733Y1499666D01*
X-302056Y1502664D01*
X-299516Y1504950D01*
X-294487Y1508099D01*
X-290372Y1512214D01*
X-287324Y1517091D01*
X-285394Y1522577D01*
X-284683Y1528876D01*
X-284683Y1607718D01*
X-285394Y1614068D01*
X-287324Y1619504D01*
X-290372Y1624431D01*
X-294487Y1628495D01*
X-299364Y1631594D01*
X-304850Y1633524D01*
X-311150Y1634236D01*
X-400050Y1634236D01*
X-406349Y1633524D01*
X-411835Y1631594D01*
X-416712Y1628495D01*
X-420827Y1624431D01*
X-423875Y1619504D01*
X-425907Y1613712D01*
X-428040Y1610156D01*
X-431444Y1607769D01*
X-435508Y1606905D01*
X-469138Y1606905D01*
X-473100Y1607718D01*
X-476453Y1610055D01*
X-488137Y1622247D01*
X-550468Y1684578D01*
X-552856Y1688236D01*
X-553415Y1692605D01*
X-552145Y1696770D01*
X-547776Y1704492D01*
X-542442Y1717649D01*
X-538835Y1731416D01*
X-537057Y1745488D01*
X-537057Y1759712D01*
X-538835Y1773783D01*
X-542442Y1787550D01*
X-547776Y1800707D01*
X-554786Y1813102D01*
X-563473Y1824736D01*
X-565302Y1828850D01*
X-565200Y1833270D01*
X-563168Y1837283D01*
X-559663Y1840026D01*
X-555345Y1840992D01*
X-299618Y1840992D01*
X-295706Y1840230D01*
X-292404Y1837994D01*
X-130505Y1676095D01*
X-128270Y1672793D01*
X-127508Y1668881D01*
X-127508Y1481074D01*
X-128066Y1477670D01*
X-129743Y1474673D01*
X-136042Y1466951D01*
X-140716Y1458518D01*
X-143916Y1449425D01*
X-145542Y1439926D01*
X-145542Y1430274D01*
X-143916Y1420774D01*
X-140716Y1411681D01*
X-136042Y1403248D01*
X-129743Y1395526D01*
X-128066Y1392529D01*
X-127508Y1389126D01*
X-127508Y1357579D01*
X-128168Y1353972D01*
X-130098Y1350822D01*
X-132994Y1348536D01*
X-137871Y1347368D01*
X-143306Y1345438D01*
X-148234Y1342339D01*
X-152298Y1338275D01*
X-155397Y1333347D01*
X-157276Y1327912D01*
X-157988Y1321562D01*
X-157988Y1242060D01*
X-157276Y1235760D01*
X-155397Y1230274D01*
X-152298Y1225397D01*
X-148234Y1221282D01*
X-143306Y1218234D01*
X-137871Y1216304D01*
X-131521Y1215593D01*
X-46278Y1215593D01*
X-39928Y1216304D01*
X-34493Y1218234D01*
X-29565Y1221282D01*
X-25501Y1225397D01*
X-22402Y1230274D01*
X-20523Y1235760D01*
X-19812Y1242060D01*
X-19812Y1321562D01*
X-20523Y1327912D01*
X-22402Y1333347D01*
X-25501Y1338275D01*
X-29565Y1342339D01*
X-34493Y1345438D01*
X-39928Y1347368D01*
X-44805Y1348536D01*
X-47701Y1350822D01*
X-49631Y1353972D01*
X-50292Y1357579D01*
X-50292Y1389380D01*
X-49580Y1393190D01*
X-47447Y1396441D01*
X-44653Y1399387D01*
X-39268Y1407363D01*
X-35255Y1416151D01*
X-32867Y1425498D01*
X-32004Y1435100D01*
X-32867Y1444701D01*
X-35255Y1454048D01*
X-39268Y1462836D01*
X-44653Y1470812D01*
X-47447Y1473758D01*
X-49580Y1477010D01*
X-50292Y1480820D01*
X-50292Y1688592D01*
X-51104Y1696618D01*
X-53289Y1703832D01*
X-56845Y1710537D01*
X-61976Y1716735D01*
X-251764Y1906524D01*
X-257962Y1911654D01*
X-264668Y1915210D01*
X-271881Y1917395D01*
X-279908Y1918207D01*
X-754481Y1918207D01*
X-758393Y1918970D01*
X-761695Y1921205D01*
X-796239Y1955749D01*
X-798423Y1959000D01*
X-799185Y1962861D01*
X-798474Y1966722D01*
X-796442Y1971649D01*
X-792835Y1985416D01*
X-791057Y1999488D01*
X-791057Y2013712D01*
X-792835Y2027783D01*
X-796442Y2041550D01*
X-801776Y2054707D01*
X-808786Y2067102D01*
X-817270Y2078482D01*
X-827125Y2088692D01*
X-838250Y2097532D01*
X-850392Y2104898D01*
X-863396Y2110638D01*
X-877011Y2114702D01*
X-891032Y2116988D01*
X-905256Y2117445D01*
X-919378Y2116074D01*
X-933246Y2112924D01*
X-946607Y2107996D01*
X-959205Y2101443D01*
X-970838Y2093315D01*
X-981354Y2083765D01*
X-990549Y2072944D01*
X-998321Y2061006D01*
X-1004468Y2048205D01*
X-1008938Y2034743D01*
X-1011682Y2020773D01*
X-1012596Y2006600D01*
X-1011682Y1992426D01*
X-1008938Y1978456D01*
X-1004468Y1964994D01*
X-998321Y1952193D01*
X-990549Y1940255D01*
X-981354Y1929434D01*
X-970838Y1919884D01*
X-959205Y1911756D01*
X-946607Y1905203D01*
X-933246Y1900275D01*
X-919378Y1897125D01*
X-905256Y1895754D01*
X-891032Y1896211D01*
X-877011Y1898497D01*
X-858062Y1904034D01*
X-854100Y1903272D01*
X-850747Y1901037D01*
X-802335Y1852675D01*
X-796137Y1847545D01*
X-789432Y1843989D01*
X-782218Y1841804D01*
X-774192Y1840992D01*
X-739749Y1840992D01*
X-735990Y1840280D01*
X-732790Y1838198D01*
X-730554Y1835099D01*
X-729640Y1831390D01*
X-730148Y1827580D01*
X-732028Y1824228D01*
X-736549Y1818944D01*
X-744321Y1807006D01*
X-750468Y1794205D01*
X-754938Y1780743D01*
X-757682Y1766773D01*
X-758596Y1752600D01*
X-757682Y1738426D01*
X-756158Y1730502D01*
X-756056Y1727200D01*
X-757021Y1724050D01*
X-758901Y1721357D01*
X-784098Y1696212D01*
X-787400Y1694027D01*
X-791260Y1693214D01*
X-795121Y1693976D01*
X-798423Y1696161D01*
X-800658Y1699463D01*
X-801420Y1703324D01*
X-800709Y1707184D01*
X-796442Y1717649D01*
X-792835Y1731416D01*
X-791057Y1745488D01*
X-791057Y1759712D01*
X-792835Y1773783D01*
X-796442Y1787550D01*
X-801776Y1800707D01*
X-808786Y1813102D01*
X-817270Y1824482D01*
X-827125Y1834692D01*
X-838250Y1843532D01*
X-850392Y1850898D01*
X-863396Y1856638D01*
X-877011Y1860702D01*
X-891032Y1862988D01*
X-905256Y1863445D01*
X-919378Y1862074D01*
X-933246Y1858924D01*
X-946607Y1853996D01*
X-959205Y1847443D01*
X-970838Y1839315D01*
X-981354Y1829765D01*
X-990549Y1818944D01*
X-998321Y1807006D01*
X-1004468Y1794205D01*
X-1008938Y1780743D01*
X-1011682Y1766773D01*
X-1012596Y1752600D01*
X-1011682Y1738426D01*
X-1008938Y1724456D01*
X-1004468Y1710994D01*
X-998321Y1698193D01*
X-990549Y1686255D01*
X-981354Y1675434D01*
X-970838Y1665884D01*
X-959205Y1657756D01*
X-956411Y1656334D01*
X-953465Y1653997D01*
X-951534Y1650746D01*
X-950925Y1647037D01*
X-951737Y1643329D01*
X-953820Y1640230D01*
X-1016050Y1576578D01*
X-1019149Y1574444D01*
X-1022858Y1573530D01*
X-1026617Y1574088D01*
X-1029919Y1575968D01*
X-1032256Y1578914D01*
X-1034745Y1583537D01*
X-1039876Y1589735D01*
X-1095248Y1645157D01*
X-1097330Y1648155D01*
X-1098194Y1651711D01*
X-1097737Y1655318D01*
X-1096060Y1658569D01*
X-1081125Y1670507D01*
X-1071270Y1680718D01*
X-1062786Y1692097D01*
X-1055776Y1704492D01*
X-1050442Y1717649D01*
X-1046835Y1731416D01*
X-1045057Y1745488D01*
X-1045057Y1759712D01*
X-1046835Y1773783D01*
X-1050442Y1787550D01*
X-1055776Y1800707D01*
X-1062786Y1813102D01*
X-1071270Y1824482D01*
X-1081125Y1834692D01*
X-1092250Y1843532D01*
X-1104392Y1850898D01*
X-1117396Y1856638D01*
X-1131011Y1860702D01*
X-1145032Y1862988D01*
X-1159256Y1863445D01*
X-1173378Y1862074D01*
X-1187246Y1858924D01*
X-1200607Y1853996D01*
X-1213205Y1847443D01*
X-1224838Y1839315D01*
X-1235354Y1829765D01*
X-1244549Y1818944D01*
X-1252321Y1807006D01*
X-1258468Y1794205D01*
X-1262938Y1780743D01*
X-1265682Y1766773D01*
X-1266596Y1752600D01*
X-1265682Y1738426D01*
X-1262938Y1724456D01*
X-1258468Y1710994D01*
X-1252321Y1698193D01*
X-1244549Y1686255D01*
X-1235354Y1675434D01*
X-1224838Y1665884D01*
X-1213205Y1657756D01*
X-1197305Y1649475D01*
X-1195171Y1647189D01*
X-1193800Y1644396D01*
X-1191361Y1636268D01*
X-1187043Y1628444D01*
X-1185824Y1624431D01*
X-1186332Y1620266D01*
X-1188466Y1616710D01*
X-1191869Y1614271D01*
X-1195984Y1613408D01*
X-1211681Y1613408D01*
X-1215593Y1614170D01*
X-1218895Y1616405D01*
X-1304239Y1701749D01*
X-1306423Y1705000D01*
X-1307185Y1708861D01*
X-1306474Y1712722D01*
X-1304442Y1717649D01*
X-1300835Y1731416D01*
X-1299057Y1745488D01*
X-1299057Y1759712D01*
X-1300835Y1773783D01*
X-1304442Y1787550D01*
X-1309776Y1800707D01*
X-1316786Y1813102D01*
X-1325270Y1824482D01*
X-1335125Y1834692D01*
X-1346250Y1843532D01*
X-1358392Y1850898D01*
X-1371396Y1856638D01*
X-1385011Y1860702D01*
X-1399032Y1862988D01*
X-1413256Y1863445D01*
X-1427378Y1862074D01*
X-1441246Y1858924D01*
X-1454607Y1853996D01*
X-1467205Y1847443D01*
X-1478838Y1839315D01*
X-1489354Y1829765D01*
X-1498549Y1818944D01*
X-1506321Y1807006D01*
X-1512468Y1794205D01*
X-1516938Y1780743D01*
X-1519682Y1766773D01*
X-1520596Y1752600D01*
X-1519682Y1738426D01*
X-1516938Y1724456D01*
X-1512468Y1710994D01*
X-1506321Y1698193D01*
X-1498549Y1686255D01*
X-1489354Y1675434D01*
X-1478838Y1665884D01*
X-1467205Y1657756D01*
X-1454607Y1651203D01*
X-1441246Y1646275D01*
X-1427378Y1643125D01*
X-1413256Y1641754D01*
X-1399032Y1642211D01*
X-1385011Y1644497D01*
X-1366062Y1650034D01*
X-1362100Y1649272D01*
X-1358747Y1647037D01*
X-1259535Y1547876D01*
X-1253337Y1542745D01*
X-1246632Y1539189D01*
X-1239418Y1537004D01*
X-1231392Y1536192D01*
X-1214018Y1536192D01*
X-1210106Y1535430D01*
X-1206804Y1533194D01*
X-1156411Y1482801D01*
X-1154176Y1479499D01*
X-1153414Y1475587D01*
X-1153414Y1280312D01*
X-1153210Y1277721D01*
X-1153210Y1263345D01*
X-1153972Y1259484D01*
X-1156208Y1256182D01*
X-1159459Y1253998D01*
X-1163370Y1253185D01*
X-1209243Y1253185D01*
X-1215542Y1252474D01*
X-1221028Y1250594D01*
X-1225905Y1247495D01*
X-1230020Y1243431D01*
X-1233068Y1238504D01*
X-1234998Y1233068D01*
X-1235710Y1226718D01*
X-1235710Y1202893D01*
X-1234998Y1196543D01*
X-1233068Y1191107D01*
X-1229664Y1185621D01*
X-1228801Y1183284D01*
X-1226464Y1182420D01*
X-1221028Y1179017D01*
X-1215542Y1177086D01*
X-1209243Y1176375D01*
X-1150366Y1176375D01*
X-1144066Y1177086D01*
X-1138580Y1179017D01*
X-1133703Y1182116D01*
X-1129588Y1186180D01*
X-1126490Y1191107D01*
X-1124610Y1196543D01*
X-1123899Y1202893D01*
X-1123899Y1213713D01*
X-1123137Y1217625D01*
X-1120902Y1220927D01*
X-1117600Y1223111D01*
X-1113739Y1223873D01*
X-1102868Y1223873D01*
X-1096568Y1224584D01*
X-1093165Y1225804D01*
X-1089812Y1226362D01*
X-1086459Y1225804D01*
X-1083056Y1224584D01*
X-1076706Y1223873D01*
X-1052880Y1223873D01*
X-1046530Y1224584D01*
X-1043178Y1225804D01*
X-1039774Y1226362D01*
X-1036421Y1225804D01*
X-1033068Y1224584D01*
X-1026718Y1223873D01*
X-1002893Y1223873D01*
X-996543Y1224584D01*
X-993140Y1225804D01*
X-989787Y1226362D01*
X-986434Y1225804D01*
X-983030Y1224584D01*
X-976731Y1223873D01*
X-952855Y1223873D01*
X-946556Y1224584D01*
X-941069Y1226515D01*
X-936193Y1229614D01*
X-932078Y1233678D01*
X-929030Y1238605D01*
X-927100Y1244041D01*
X-926388Y1250391D01*
X-926388Y1276807D01*
X-926084Y1280414D01*
X-926084Y1440789D01*
X-925321Y1444701D01*
X-923086Y1448003D01*
X-715822Y1655318D01*
X-712216Y1657604D01*
X-707999Y1658264D01*
X-703935Y1657096D01*
X-692607Y1651203D01*
X-679246Y1646275D01*
X-665378Y1643125D01*
X-651256Y1641754D01*
X-637032Y1642211D01*
X-625195Y1644142D01*
X-621995Y1644142D01*
X-618998Y1643176D01*
X-616407Y1641297D01*
X-551180Y1576070D01*
X-548944Y1572768D01*
X-548182Y1568856D01*
X-548944Y1564995D01*
X-551180Y1561693D01*
X-725068Y1387805D01*
X-728370Y1385570D01*
X-732282Y1384808D01*
X-786892Y1384808D01*
X-794918Y1383995D01*
X-802132Y1381810D01*
X-808837Y1378254D01*
X-815035Y1373124D01*
X-841756Y1346454D01*
X-846886Y1340205D01*
X-850442Y1333550D01*
X-852627Y1326337D01*
X-853440Y1318310D01*
X-853440Y1280312D01*
X-853186Y1277670D01*
X-853186Y1250391D01*
X-852474Y1244041D01*
X-850595Y1238605D01*
X-847496Y1233678D01*
X-843432Y1229614D01*
X-838504Y1226515D01*
X-833069Y1224584D01*
X-826719Y1223873D01*
X-802894Y1223873D01*
X-796544Y1224584D01*
X-793140Y1225804D01*
X-789787Y1226362D01*
X-786434Y1225804D01*
X-783031Y1224584D01*
X-776732Y1223873D01*
X-765860Y1223873D01*
X-762000Y1223111D01*
X-758698Y1220927D01*
X-756462Y1217625D01*
X-755700Y1213713D01*
X-755700Y1202893D01*
X-754989Y1196543D01*
X-753821Y1193139D01*
X-753262Y1189786D01*
X-753821Y1186434D01*
X-754989Y1183030D01*
X-755700Y1176731D01*
X-755700Y1152855D01*
X-754989Y1146556D01*
X-753821Y1143152D01*
X-753262Y1139799D01*
X-753821Y1136446D01*
X-754989Y1133043D01*
X-755700Y1126744D01*
X-755700Y1102868D01*
X-754989Y1096568D01*
X-753821Y1093165D01*
X-753262Y1089812D01*
X-753821Y1086459D01*
X-754989Y1083056D01*
X-755700Y1076706D01*
X-755700Y1052880D01*
X-754989Y1046530D01*
X-753821Y1043178D01*
X-753262Y1039825D01*
X-753821Y1036421D01*
X-754989Y1033068D01*
X-755700Y1026718D01*
X-755700Y1002893D01*
X-754989Y996543D01*
X-753821Y993140D01*
X-753262Y989787D01*
X-753821Y986434D01*
X-754989Y983030D01*
X-755700Y976731D01*
X-755700Y952855D01*
X-754989Y946556D01*
X-753110Y941069D01*
X-750011Y936193D01*
X-745896Y932078D01*
X-741019Y929030D01*
X-735533Y927100D01*
X-729234Y926388D01*
X-701903Y926388D01*
X-699312Y926185D01*
X-611682Y926185D01*
X-607364Y925220D01*
X-603910Y922528D01*
X-601878Y918565D01*
X-601218Y916127D01*
X-600964Y912469D01*
X-602030Y908913D01*
X-604266Y906018D01*
X-607415Y904087D01*
X-611073Y903427D01*
X-699312Y903427D01*
X-701751Y903224D01*
X-729234Y903224D01*
X-735533Y902512D01*
X-741019Y900582D01*
X-745896Y897483D01*
X-750011Y893419D01*
X-753110Y888492D01*
X-754989Y883056D01*
X-755700Y876706D01*
X-755700Y852881D01*
X-754989Y846531D01*
X-753110Y841095D01*
X-750011Y836168D01*
X-745896Y832103D01*
X-741019Y829005D01*
X-735533Y827125D01*
X-729234Y826414D01*
X-701852Y826414D01*
X-699312Y826211D01*
X-374091Y826211D01*
X-371043Y826465D01*
X-367588Y826211D01*
X-364388Y824839D01*
X-361899Y822452D01*
X-359714Y817372D01*
X-356158Y810666D01*
X-351028Y804468D01*
X-293471Y746861D01*
X-291236Y743559D01*
X-290474Y739648D01*
X-291236Y735787D01*
X-293471Y732485D01*
X-296773Y730300D01*
X-300634Y729488D01*
X-369062Y729488D01*
X-375412Y728776D01*
X-380847Y726897D01*
X-385064Y724255D01*
X-389280Y722782D01*
X-393700Y723239D01*
X-397510Y725576D01*
X-399948Y729284D01*
X-400558Y733704D01*
X-400304Y736600D01*
X-401167Y746201D01*
X-403555Y755548D01*
X-407568Y764336D01*
X-412953Y772312D01*
X-419608Y779272D01*
X-427380Y785012D01*
X-436016Y789381D01*
X-445211Y792175D01*
X-454761Y793445D01*
X-464413Y792988D01*
X-473862Y790956D01*
X-482803Y787400D01*
X-491032Y782320D01*
X-496214Y777748D01*
X-499364Y775868D01*
X-502920Y775208D01*
X-538581Y775208D01*
X-542493Y775970D01*
X-545795Y778205D01*
X-559358Y791768D01*
X-565556Y796848D01*
X-572211Y800404D01*
X-579475Y802589D01*
X-587502Y803402D01*
X-699312Y803402D01*
X-701751Y803198D01*
X-729234Y803198D01*
X-735533Y802487D01*
X-741019Y800608D01*
X-745896Y797509D01*
X-750011Y793394D01*
X-753110Y788517D01*
X-754989Y783031D01*
X-755700Y776732D01*
X-755700Y752856D01*
X-754989Y746556D01*
X-753821Y743153D01*
X-753262Y739800D01*
X-753821Y736447D01*
X-754989Y733044D01*
X-755700Y726744D01*
X-755700Y702868D01*
X-754989Y696569D01*
X-753110Y691083D01*
X-750011Y686206D01*
X-745896Y682091D01*
X-741883Y679551D01*
X-738733Y676452D01*
X-737920Y674268D01*
X-735076Y676046D01*
X-730605Y676554D01*
X-729234Y676402D01*
X-702259Y676402D01*
X-699262Y676148D01*
X-620674Y676148D01*
X-616762Y675386D01*
X-613460Y673150D01*
X-573735Y633476D01*
X-567537Y628345D01*
X-560882Y624789D01*
X-553618Y622604D01*
X-545592Y621792D01*
X-410362Y621792D01*
X-406806Y621131D01*
X-403656Y619252D01*
X-401421Y616407D01*
X-400354Y614426D01*
X-395579Y608584D01*
X-392633Y605536D01*
X-389839Y601065D01*
X-385775Y597001D01*
X-380847Y593902D01*
X-374751Y591769D01*
X-371195Y589635D01*
X-368808Y586232D01*
X-367944Y582168D01*
X-367944Y546963D01*
X-368706Y543102D01*
X-370941Y539800D01*
X-374192Y537616D01*
X-378104Y536803D01*
X-417677Y536803D01*
X-423976Y536092D01*
X-429463Y534212D01*
X-434340Y531114D01*
X-438454Y527050D01*
X-441502Y522122D01*
X-443433Y516686D01*
X-444144Y510336D01*
X-444144Y421487D01*
X-443433Y415188D01*
X-441502Y409701D01*
X-438454Y404825D01*
X-434340Y400710D01*
X-429463Y397662D01*
X-423976Y395732D01*
X-417677Y395020D01*
X-318820Y395020D01*
X-312470Y395732D01*
X-307035Y397662D01*
X-302107Y400710D01*
X-298043Y404825D01*
X-294944Y409701D01*
X-293065Y415188D01*
X-292303Y421487D01*
X-292303Y493268D01*
X-291541Y497433D01*
X-290728Y505459D01*
X-290728Y582168D01*
X-289864Y586232D01*
X-287477Y589635D01*
X-283921Y591769D01*
X-277774Y593902D01*
X-272897Y597001D01*
X-268782Y601065D01*
X-265734Y605993D01*
X-263601Y612038D01*
X-261467Y615594D01*
X-258064Y618032D01*
X-254000Y618845D01*
X-249936Y618032D01*
X-246532Y615594D01*
X-244398Y612038D01*
X-242265Y605993D01*
X-239217Y601065D01*
X-235102Y597001D01*
X-231343Y593953D01*
X-229666Y590956D01*
X-229108Y587603D01*
X-229108Y544779D01*
X-229768Y541172D01*
X-231698Y538022D01*
X-234594Y535736D01*
X-239471Y534568D01*
X-244906Y532638D01*
X-249834Y529539D01*
X-253898Y525475D01*
X-256997Y520547D01*
X-258876Y515112D01*
X-259588Y508762D01*
X-259588Y429259D01*
X-258876Y422960D01*
X-256997Y417474D01*
X-253898Y412597D01*
X-249834Y408482D01*
X-244906Y405434D01*
X-238861Y403301D01*
X-235305Y401167D01*
X-232867Y397764D01*
X-232054Y393700D01*
X-232867Y389636D01*
X-235305Y386232D01*
X-238861Y384098D01*
X-244906Y381965D01*
X-249834Y378917D01*
X-253898Y374802D01*
X-256997Y369925D01*
X-259130Y363778D01*
X-261264Y360222D01*
X-264668Y357835D01*
X-268732Y356971D01*
X-293776Y356971D01*
X-297637Y357733D01*
X-302107Y361137D01*
X-307035Y364185D01*
X-312470Y366115D01*
X-318820Y366826D01*
X-417677Y366826D01*
X-423976Y366115D01*
X-429463Y364185D01*
X-434340Y361137D01*
X-438454Y357022D01*
X-441502Y352145D01*
X-443433Y346659D01*
X-444144Y340360D01*
X-444144Y251510D01*
X-443433Y245160D01*
X-441502Y239725D01*
X-438454Y234797D01*
X-434340Y230733D01*
X-429463Y227634D01*
X-423976Y225704D01*
G37*
G36*
X-1413256Y1895754D02*
G01*
X-1399032Y1896211D01*
X-1385011Y1898497D01*
X-1371396Y1902510D01*
X-1358392Y1908302D01*
X-1346250Y1915668D01*
X-1335125Y1924507D01*
X-1325270Y1934718D01*
X-1316786Y1946097D01*
X-1309776Y1958492D01*
X-1304442Y1971649D01*
X-1300835Y1985416D01*
X-1299057Y1999488D01*
X-1299057Y2013712D01*
X-1300835Y2027783D01*
X-1304442Y2041550D01*
X-1309776Y2054707D01*
X-1316786Y2067102D01*
X-1325270Y2078482D01*
X-1335125Y2088692D01*
X-1346250Y2097532D01*
X-1358392Y2104898D01*
X-1371396Y2110638D01*
X-1385011Y2114702D01*
X-1399032Y2116988D01*
X-1413256Y2117445D01*
X-1427378Y2116074D01*
X-1441246Y2112924D01*
X-1454607Y2107996D01*
X-1467205Y2101443D01*
X-1478838Y2093315D01*
X-1489354Y2083765D01*
X-1498549Y2072944D01*
X-1506321Y2061006D01*
X-1512468Y2048205D01*
X-1516938Y2034743D01*
X-1519682Y2020773D01*
X-1520596Y2006600D01*
X-1519682Y1992426D01*
X-1516938Y1978456D01*
X-1512468Y1964994D01*
X-1506321Y1952193D01*
X-1498549Y1940255D01*
X-1489354Y1929434D01*
X-1478838Y1919884D01*
X-1467205Y1911756D01*
X-1454607Y1905203D01*
X-1441246Y1900275D01*
X-1427378Y1897125D01*
G37*
G36*
X-1159256Y1895754D02*
G01*
X-1145032Y1896211D01*
X-1131011Y1898497D01*
X-1117396Y1902510D01*
X-1104392Y1908302D01*
X-1092250Y1915668D01*
X-1081125Y1924507D01*
X-1071270Y1934718D01*
X-1062786Y1946097D01*
X-1055776Y1958492D01*
X-1050442Y1971649D01*
X-1046835Y1985416D01*
X-1045057Y1999488D01*
X-1045057Y2013712D01*
X-1046835Y2027783D01*
X-1050442Y2041550D01*
X-1055776Y2054707D01*
X-1062786Y2067102D01*
X-1071270Y2078482D01*
X-1081125Y2088692D01*
X-1092250Y2097532D01*
X-1104392Y2104898D01*
X-1117396Y2110638D01*
X-1131011Y2114702D01*
X-1145032Y2116988D01*
X-1159256Y2117445D01*
X-1173378Y2116074D01*
X-1187246Y2112924D01*
X-1200607Y2107996D01*
X-1213205Y2101443D01*
X-1224838Y2093315D01*
X-1235354Y2083765D01*
X-1244549Y2072944D01*
X-1252321Y2061006D01*
X-1258468Y2048205D01*
X-1262938Y2034743D01*
X-1265682Y2020773D01*
X-1266596Y2006600D01*
X-1265682Y1992426D01*
X-1262938Y1978456D01*
X-1258468Y1964994D01*
X-1252321Y1952193D01*
X-1244549Y1940255D01*
X-1235354Y1929434D01*
X-1224838Y1919884D01*
X-1213205Y1911756D01*
X-1200607Y1905203D01*
X-1187246Y1900275D01*
X-1173378Y1897125D01*
G37*
G36*
X-1667256Y1895754D02*
G01*
X-1653032Y1896211D01*
X-1639011Y1898497D01*
X-1625396Y1902510D01*
X-1612392Y1908302D01*
X-1600250Y1915668D01*
X-1589125Y1924507D01*
X-1579270Y1934718D01*
X-1570786Y1946097D01*
X-1563776Y1958492D01*
X-1558442Y1971649D01*
X-1554835Y1985416D01*
X-1553057Y1999488D01*
X-1553057Y2013712D01*
X-1554835Y2027783D01*
X-1558442Y2041550D01*
X-1563776Y2054707D01*
X-1570786Y2067102D01*
X-1579270Y2078482D01*
X-1589125Y2088692D01*
X-1600250Y2097532D01*
X-1612392Y2104898D01*
X-1625396Y2110638D01*
X-1639011Y2114702D01*
X-1653032Y2116988D01*
X-1667256Y2117445D01*
X-1681378Y2116074D01*
X-1695246Y2112924D01*
X-1708607Y2107996D01*
X-1721205Y2101443D01*
X-1732838Y2093315D01*
X-1743354Y2083765D01*
X-1752549Y2072944D01*
X-1760321Y2061006D01*
X-1766468Y2048205D01*
X-1770938Y2034743D01*
X-1773682Y2020773D01*
X-1774596Y2006600D01*
X-1773682Y1992426D01*
X-1770938Y1978456D01*
X-1766468Y1964994D01*
X-1760321Y1952193D01*
X-1752549Y1940255D01*
X-1743354Y1929434D01*
X-1732838Y1919884D01*
X-1721205Y1911756D01*
X-1708607Y1905203D01*
X-1695246Y1900275D01*
X-1681378Y1897125D01*
G37*

%LPD*%
D10*
X-814809Y1279804D02*
G01*
X-814809Y1318790D01*
X-787400Y1346200D01*
X-712063Y1346200D01*
X-623163Y1435100D01*
X-964691Y1279905D02*
G01*
X-964691Y1461007D01*
X-673100Y1752600D01*
X-647700Y1752600D01*
X-2069236Y1676400D02*
G01*
X-2069236Y1650136D01*
X-1981200Y1562100D01*
X-1790700Y1562100D01*
X-1701800Y1473200D01*
X-1701800Y1054100D01*
X-1905000Y850900D01*
X-1587500Y1054963D02*
G01*
X-1524863Y1117600D01*
X-1308100Y1117600D01*
X-1257300Y1066800D01*
X-1257300Y1041400D01*
X-1230635Y1014729D01*
X-1179835Y1014729D01*
X-699764Y714753D02*
G01*
X-600458Y714753D01*
X-546105Y660400D01*
X-329336Y660400D01*
X-901700Y1752600D02*
G01*
X-901700Y1638300D01*
X-1014729Y1522729D01*
X-1014729Y1279905D01*
X-1930400Y1855063D02*
G01*
X-1918563Y1843227D01*
X-1918563Y1676400D01*
X-190500Y608738D02*
G01*
X-190500Y469038D01*
X-368300Y295993D02*
G01*
X-345925Y318361D01*
X-190500Y318361D01*
X-329336Y660400D02*
G01*
X-329336Y504957D01*
X-368300Y465993D01*
X-178663Y660400D02*
G01*
X-178663Y620575D01*
X-190500Y608738D01*
X-329336Y660400D02*
G01*
X-343761Y660400D01*
X-368300Y635861D01*
X-699770Y814831D02*
G01*
X-560831Y814831D01*
X-546100Y800100D01*
X-520700Y800100D01*
X-699790Y764796D02*
G01*
X-586991Y764796D01*
X-558794Y736600D01*
X-457200Y736600D01*
X-88900Y1281838D02*
G01*
X-88900Y1435100D01*
X-864791Y599795D02*
G01*
X-864791Y534591D01*
X-787400Y457200D01*
X-787400Y381000D01*
X-1422400Y1212695D02*
G01*
X-1429458Y1205636D01*
X-1587500Y1205636D01*
X-1014735Y599696D02*
G01*
X-1016000Y598431D01*
X-1016000Y279400D01*
X-699795Y664794D02*
G01*
X-657301Y622300D01*
X-635000Y622300D01*
X-1536700Y844702D02*
G01*
X-1479397Y787400D01*
X-1308100Y787400D01*
X-1230708Y864796D01*
X-1179809Y864796D01*
X-1179804Y964793D02*
G01*
X-1313891Y964793D01*
X-1358900Y1009802D01*
X-1179804Y914806D02*
G01*
X-1313891Y914806D01*
X-1358900Y869797D01*
X-699790Y964791D02*
G01*
X-583791Y964791D01*
X-546100Y927100D01*
X-699790Y1064790D02*
G01*
X-697781Y1066800D01*
X-444500Y1066800D01*
X-1179829Y1114805D02*
G01*
X-1241806Y1114805D01*
X-1339595Y1212595D01*
X-1422400Y1212595D01*
X-1014729Y599694D02*
G01*
X-1016000Y647700D01*
X-864870Y599694D02*
G01*
X-863600Y647700D01*
X-1917700Y275592D02*
G01*
X-1946907Y304800D01*
X-2109063Y304800D01*
X-1155700Y1752600D02*
G01*
X-1155700Y1651000D01*
X-1066800Y1562100D01*
X-1066800Y1282700D01*
X-1114806Y1279804D02*
G01*
X-1114806Y1495805D01*
X-1193800Y1574800D01*
X-1231900Y1574800D01*
X-1409700Y1752600D01*
X-1663700Y1752600D02*
G01*
X-1739900Y1676400D01*
X-1918563Y1676400D01*
X-699770Y1164844D02*
G01*
X-536956Y1164844D01*
X-482600Y1219200D01*
X-419100Y1219200D01*
X-764791Y1279804D02*
G01*
X-612490Y1279809D01*
X-508000Y1384300D01*
X-469036Y1384300D01*
X-88900Y1435100D02*
G01*
X-88900Y1689100D01*
X-279400Y1879600D01*
X-774700Y1879600D01*
X-901700Y2006600D01*
X-838200Y723900D02*
G01*
X-779094Y664794D01*
X-699795Y664794D01*
X-623163Y1435100D02*
G01*
X-489968Y1568295D01*
X-355600Y1568295D01*
X-1179829Y664718D02*
G01*
X-1113281Y664718D01*
X-1054100Y723900D01*
X-838200Y723900D01*
X-699795Y1014806D02*
G01*
X-544906Y1014806D01*
X-520700Y990600D01*
X-318261Y989657D01*
X-699770Y1114805D02*
G01*
X-510793Y1114805D01*
X-482600Y1143000D01*
X-369824Y1143000D01*
X-318261Y1143000D01*
X-699764Y1214884D02*
G01*
X-563115Y1214884D01*
X-495300Y1282700D01*
X-419963Y1282700D01*
X-318363Y1384300D01*
X-317500Y1384300D02*
G01*
X-317500Y920595D01*
X-323695Y914400D01*
X-324002Y914400D01*
X-355600Y1568195D02*
G01*
X-342900Y1568195D01*
X-342900Y1384300D01*
X-318261Y1384300D01*
X-324104Y914400D02*
G01*
X-324104Y832104D01*
X-178561Y686562D01*
X-178561Y660400D01*
X-489968Y1568295D02*
G01*
X-515365Y1594865D01*
X-647700Y1727200D01*
X-647700Y1752600D01*
X-324002Y914400D02*
G01*
X-373606Y864796D01*
X-699790Y864796D01*
D11*
G01*
X-368249Y465912D03*
G01*
X-368249Y295910D03*
D12*
G01*
X-2109075Y304800D03*
G01*
X-2259724Y304800D03*
D13*
G01*
X-1930400Y2005724D03*
D14*
G01*
X-1930400Y1855063D03*
D12*
G01*
X-1918575Y1676400D03*
G01*
X-2069224Y1676400D03*
D13*
G01*
X-190500Y318375D03*
D14*
G01*
X-190500Y469036D03*
D16*
G01*
X-1587500Y431149D03*
D17*
G01*
X-1587500Y127660D03*
D18*
G01*
X-324002Y914400D03*
G01*
X-183997Y914400D03*
D19*
G01*
X-1536700Y704697D03*
G01*
X-1536700Y844702D03*
G01*
X-1358900Y869797D03*
G01*
X-1358900Y1009802D03*
G01*
X-1320800Y463702D03*
G01*
X-1320800Y323697D03*
G01*
X-355600Y1568297D03*
G01*
X-355600Y1708302D03*
D20*
G01*
X-469024Y1384300D03*
G01*
X-318375Y1384300D03*
D19*
G01*
X-1422400Y1212697D03*
G01*
X-1422400Y1352702D03*
D13*
G01*
X-1587500Y1205624D03*
D14*
G01*
X-1587500Y1054963D03*
D13*
G01*
X-88900Y1131175D03*
D14*
G01*
X-88900Y1281836D03*
D12*
G01*
X-178675Y660400D03*
G01*
X-329324Y660400D03*
D21*
G01*
X-939774Y939800D03*
D22*
G01*
X-1114806Y1279804D03*
G01*
X-1064793Y1279804D03*
G01*
X-1014806Y1279804D03*
G01*
X-964793Y1279804D03*
G01*
X-914806Y1279804D03*
G01*
X-864793Y1279804D03*
G01*
X-814806Y1279804D03*
G01*
X-764793Y1279804D03*
D23*
G01*
X-699795Y1214805D03*
G01*
X-699795Y1164793D03*
G01*
X-699795Y1114805D03*
G01*
X-699795Y1064793D03*
G01*
X-699795Y1014806D03*
G01*
X-699795Y964793D03*
G01*
X-699795Y914806D03*
G01*
X-699795Y864793D03*
G01*
X-699795Y814806D03*
G01*
X-699795Y764794D03*
G01*
X-699795Y714806D03*
G01*
X-699795Y664794D03*
D22*
G01*
X-764793Y599795D03*
G01*
X-814806Y599795D03*
G01*
X-864793Y599795D03*
G01*
X-914806Y599795D03*
G01*
X-964793Y599795D03*
G01*
X-1014806Y599795D03*
G01*
X-1064793Y599795D03*
G01*
X-1114806Y599795D03*
D23*
G01*
X-1179804Y664794D03*
G01*
X-1179804Y714806D03*
G01*
X-1179804Y764794D03*
G01*
X-1179804Y814806D03*
G01*
X-1179804Y864793D03*
G01*
X-1179804Y914806D03*
G01*
X-1179804Y964793D03*
G01*
X-1179804Y1014806D03*
G01*
X-1179804Y1064793D03*
G01*
X-1179804Y1114805D03*
G01*
X-1179804Y1164793D03*
G01*
X-1179804Y1214805D03*
D24*
G01*
X-1917700Y275589D03*
G01*
X-1917700Y105410D03*
D25*
G01*
X-2171700Y744601D03*
G01*
X-2171700Y1244600D03*
D26*
G01*
X-647700Y-12700D03*
G01*
X-901700Y-12700D03*
D27*
G01*
X-1155700Y-12700D03*
D28*
G01*
X-1663700Y1752600D03*
G01*
X-1663700Y2006600D03*
G01*
X-1409700Y1752600D03*
G01*
X-1409700Y2006600D03*
G01*
X-1155700Y1752600D03*
G01*
X-1155700Y2006600D03*
G01*
X-901700Y1752600D03*
G01*
X-901700Y2006600D03*
G01*
X-647700Y1752600D03*
D26*
G01*
X-647700Y2006600D03*
D29*
G01*
X-101600Y38100D03*
G01*
X-2197100Y2032000D03*
D26*
G01*
X-393700Y2006600D03*
D29*
G01*
X-2197100Y38100D03*
D30*
G01*
X-1155700Y-12700D03*
G01*
X-901700Y-12700D03*
G01*
X-647700Y-12700D03*
D29*
G01*
X-101600Y2032000D03*
D31*
G01*
X-419100Y1219200D03*
G01*
X-444500Y1066800D03*
G01*
X-546100Y927100D03*
G01*
X-635000Y622300D03*
G01*
X-1206500Y596900D03*
G01*
X-1016000Y279400D03*
G01*
X-787400Y381000D03*
D32*
G01*
X-2260600Y1828800D03*
G01*
X-2260600Y1587500D03*
G01*
X-1257300Y1384300D03*
G01*
X-1587500Y1346200D03*
G01*
X-1790700Y-25400D03*
G01*
X-1409700Y-25400D03*
G01*
X-355600Y-38100D03*
G01*
X-355600Y127000D03*
G01*
X-76200Y355600D03*
G01*
X-76200Y749300D03*
G01*
X-1054100Y1155700D03*
G01*
X-825500Y1155700D03*
G01*
X-1054100Y723900D03*
G01*
X-838200Y723900D03*
G01*
X-1054100Y1003300D03*
G01*
X-838200Y1003300D03*
G01*
X-1054100Y863600D03*
G01*
X-838200Y863600D03*
G01*
X-952500Y1079500D03*
G01*
X-952500Y939800D03*
G01*
X-952500Y812800D03*
G01*
X-1892300Y1422400D03*
G01*
X-1879600Y1117600D03*
G01*
X-1816100Y1270000D03*
G01*
X-1930400Y2146300D03*
G01*
X-2120900Y1511300D03*
G01*
X-1587500Y-25400D03*
G01*
X-2019300Y-25400D03*
G01*
X-88900Y1435100D03*
G01*
X-457200Y736600D03*
G01*
X-520700Y800100D03*
G01*
X-1422400Y1511300D03*
G01*
X-1689100Y863600D03*
G01*
X-2070100Y1828800D03*
G01*
X-1587500Y1536700D03*
G01*
X-1485900Y977900D03*
G01*
X-711200Y1549400D03*
G01*
X-203200Y1524000D03*
G01*
X-215900Y1155700D03*
G01*
X-876300Y1447800D03*
M02*
