G04 Layer: TopSilkscreenLayer*
G04 EasyEDA v6.5.57, 2026-08-14 14:16:02*
G04 98996994a3da465494a423476e9be5ad,2865ae9118a24060a17af6d01c9bcc73,10*
G04 Gerber Generator version 0.2*
G04 Scale: 100 percent, Rotated: No, Reflected: No *
G04 Dimensions in millimeters *
G04 leading zeros omitted , absolute positions ,4 integer and 5 decimal *
%FSLAX45Y45*%
%MOMM*%

%ADD10C,0.2032*%
%ADD11C,0.2540*%
%ADD12C,0.1500*%
%ADD13C,0.1524*%
%ADD14C,0.2030*%
%ADD15C,0.0193*%

%LPD*%
D10*
X-2359405Y468376D02*
G01*
X-2359408Y386334D01*
X-2400300Y427481D02*
G01*
X-2318512Y427481D01*
X-1659127Y946912D02*
G01*
X-1662684Y957834D01*
X-1670050Y961644D01*
X-1677415Y961644D01*
X-1684527Y957834D01*
X-1688338Y950721D01*
X-1691893Y935989D01*
X-1695450Y925321D01*
X-1702815Y917955D01*
X-1710181Y914400D01*
X-1721104Y914400D01*
X-1728215Y917955D01*
X-1732025Y921512D01*
X-1735581Y932434D01*
X-1735581Y946912D01*
X-1732025Y957834D01*
X-1728215Y961644D01*
X-1721104Y965200D01*
X-1710181Y965200D01*
X-1702815Y961644D01*
X-1695450Y954278D01*
X-1691893Y943355D01*
X-1688338Y928878D01*
X-1684527Y921512D01*
X-1677415Y917955D01*
X-1670050Y917955D01*
X-1662684Y921512D01*
X-1659127Y932434D01*
X-1659127Y946912D01*
X-1702815Y890270D02*
G01*
X-1702815Y824737D01*
X-1659127Y793495D02*
G01*
X-1659127Y753618D01*
X-1688338Y775462D01*
X-1688338Y764539D01*
X-1691893Y757173D01*
X-1695450Y753618D01*
X-1706372Y749807D01*
X-1713738Y749807D01*
X-1724659Y753618D01*
X-1732025Y760729D01*
X-1735581Y771652D01*
X-1735581Y782573D01*
X-1732025Y793495D01*
X-1728215Y797305D01*
X-1721104Y800862D01*
X-1659127Y682244D02*
G01*
X-1659127Y718565D01*
X-1691893Y722376D01*
X-1688338Y718565D01*
X-1684527Y707644D01*
X-1684527Y696721D01*
X-1688338Y686054D01*
X-1695450Y678687D01*
X-1706372Y675131D01*
X-1713738Y675131D01*
X-1724659Y678687D01*
X-1732025Y686054D01*
X-1735581Y696721D01*
X-1735581Y707644D01*
X-1732025Y718565D01*
X-1728215Y722376D01*
X-1721104Y725931D01*
X-1659127Y651002D02*
G01*
X-1735581Y622045D01*
X-1659127Y592836D02*
G01*
X-1735581Y622045D01*
X-1136650Y421386D02*
G01*
X-1144777Y429513D01*
X-1156970Y433831D01*
X-1173225Y433831D01*
X-1185672Y429513D01*
X-1193800Y421386D01*
X-1193800Y413257D01*
X-1189736Y405129D01*
X-1185672Y401065D01*
X-1177543Y397002D01*
X-1152906Y388620D01*
X-1144777Y384555D01*
X-1140713Y380492D01*
X-1136650Y372363D01*
X-1136650Y360171D01*
X-1144777Y351789D01*
X-1156970Y347726D01*
X-1173225Y347726D01*
X-1185672Y351789D01*
X-1193800Y360171D01*
X-1109472Y433831D02*
G01*
X-1105408Y429513D01*
X-1101343Y433831D01*
X-1105408Y437895D01*
X-1109472Y433831D01*
X-1105408Y405129D02*
G01*
X-1105408Y347726D01*
X-1074420Y405129D02*
G01*
X-1074420Y347726D01*
X-1074420Y388620D02*
G01*
X-1061974Y401065D01*
X-1053845Y405129D01*
X-1041654Y405129D01*
X-1033525Y401065D01*
X-1029461Y388620D01*
X-1029461Y347726D01*
X-1029461Y388620D02*
G01*
X-1017015Y401065D01*
X-1008888Y405129D01*
X-996695Y405129D01*
X-988313Y401065D01*
X-984250Y388620D01*
X-984250Y347726D01*
X-957325Y405129D02*
G01*
X-957325Y319278D01*
X-957325Y392684D02*
G01*
X-949197Y401065D01*
X-941070Y405129D01*
X-928624Y405129D01*
X-920495Y401065D01*
X-912368Y392684D01*
X-908304Y380492D01*
X-908304Y372363D01*
X-912368Y360171D01*
X-920495Y351789D01*
X-928624Y347726D01*
X-941070Y347726D01*
X-949197Y351789D01*
X-957325Y360171D01*
X-881379Y433831D02*
G01*
X-881379Y347726D01*
X-854202Y380492D02*
G01*
X-805179Y380492D01*
X-805179Y388620D01*
X-809243Y397002D01*
X-813308Y401065D01*
X-821436Y405129D01*
X-833881Y405129D01*
X-842009Y401065D01*
X-850138Y392684D01*
X-854202Y380492D01*
X-854202Y372363D01*
X-850138Y360171D01*
X-842009Y351789D01*
X-833881Y347726D01*
X-821436Y347726D01*
X-813308Y351789D01*
X-805179Y360171D01*
X-778256Y433831D02*
G01*
X-778256Y347726D01*
X-778256Y433831D02*
G01*
X-724915Y433831D01*
X-778256Y392684D02*
G01*
X-745490Y392684D01*
X-673354Y433831D02*
G01*
X-681736Y429513D01*
X-689863Y421386D01*
X-693927Y413257D01*
X-697991Y401065D01*
X-697991Y380492D01*
X-693927Y368300D01*
X-689863Y360171D01*
X-681736Y351789D01*
X-673354Y347726D01*
X-657097Y347726D01*
X-648970Y351789D01*
X-640588Y360171D01*
X-636524Y368300D01*
X-632459Y380492D01*
X-632459Y401065D01*
X-636524Y413257D01*
X-640588Y421386D01*
X-648970Y429513D01*
X-657097Y433831D01*
X-673354Y433831D01*
X-544068Y413257D02*
G01*
X-548131Y421386D01*
X-556513Y429513D01*
X-564641Y433831D01*
X-580897Y433831D01*
X-589279Y429513D01*
X-597408Y421386D01*
X-601472Y413257D01*
X-605536Y401065D01*
X-605536Y380492D01*
X-601472Y368300D01*
X-597408Y360171D01*
X-589279Y351789D01*
X-580897Y347726D01*
X-564641Y347726D01*
X-556513Y351789D01*
X-548131Y360171D01*
X-544068Y368300D01*
X-241300Y1662429D02*
G01*
X-216661Y1605026D01*
X-192277Y1662429D02*
G01*
X-216661Y1605026D01*
X-161036Y1670557D02*
G01*
X-161036Y1674621D01*
X-156972Y1682750D01*
X-152908Y1686813D01*
X-144779Y1691131D01*
X-128270Y1691131D01*
X-120141Y1686813D01*
X-116077Y1682750D01*
X-112013Y1674621D01*
X-112013Y1666494D01*
X-116077Y1658365D01*
X-124206Y1645920D01*
X-165100Y1605026D01*
X-107950Y1605026D01*
X-76961Y1625600D02*
G01*
X-81025Y1621536D01*
X-76961Y1617471D01*
X-72643Y1621536D01*
X-76961Y1625600D01*
X-37591Y1691131D02*
G01*
X7365Y1691131D01*
X-17018Y1658365D01*
X-4825Y1658365D01*
X3302Y1654302D01*
X7365Y1649984D01*
X11429Y1637792D01*
X11429Y1629663D01*
X7365Y1617471D01*
X-761Y1609089D01*
X-12954Y1605026D01*
X-25400Y1605026D01*
X-37591Y1609089D01*
X-41656Y1613407D01*
X-45720Y1621536D01*
X-1206500Y223012D02*
G01*
X-1206500Y156210D01*
X-1206500Y223012D02*
G01*
X-1181100Y156210D01*
X-1155700Y223012D02*
G01*
X-1181100Y156210D01*
X-1155700Y223012D02*
G01*
X-1155700Y156210D01*
X-1134618Y210312D02*
G01*
X-1128268Y213613D01*
X-1118615Y223012D01*
X-1118615Y156210D01*
X-952500Y223012D02*
G01*
X-952500Y156210D01*
X-952500Y223012D02*
G01*
X-927100Y156210D01*
X-901700Y223012D02*
G01*
X-927100Y156210D01*
X-901700Y223012D02*
G01*
X-901700Y156210D01*
X-877315Y207010D02*
G01*
X-877315Y210312D01*
X-874268Y216662D01*
X-870965Y219963D01*
X-864615Y223012D01*
X-851915Y223012D01*
X-845565Y219963D01*
X-842518Y216662D01*
X-839215Y210312D01*
X-839215Y203962D01*
X-842518Y197612D01*
X-848868Y187960D01*
X-880618Y156210D01*
X-836168Y156210D01*
X-685901Y223113D02*
G01*
X-685901Y156311D01*
X-685901Y223113D02*
G01*
X-660247Y156311D01*
X-634847Y223113D02*
G01*
X-660247Y156311D01*
X-634847Y223113D02*
G01*
X-634847Y156311D01*
X-607415Y223113D02*
G01*
X-572617Y223113D01*
X-591667Y197713D01*
X-582015Y197713D01*
X-575665Y194411D01*
X-572617Y191109D01*
X-569315Y181711D01*
X-569315Y175361D01*
X-572617Y165709D01*
X-578967Y159359D01*
X-588365Y156311D01*
X-598017Y156311D01*
X-607415Y159359D01*
X-610717Y162661D01*
X-614019Y169011D01*
X-254000Y1848357D02*
G01*
X-254000Y1733804D01*
X-254000Y1848357D02*
G01*
X-210311Y1733804D01*
X-166624Y1848357D02*
G01*
X-210311Y1733804D01*
X-166624Y1848357D02*
G01*
X-166624Y1733804D01*
X-130809Y1848357D02*
G01*
X-125222Y1842770D01*
X-119888Y1848357D01*
X-125222Y1853692D01*
X-130809Y1848357D01*
X-125222Y1810004D02*
G01*
X-125222Y1733804D01*
X-83820Y1810004D02*
G01*
X-83820Y1733804D01*
X-83820Y1788413D02*
G01*
X-67563Y1804670D01*
X-56641Y1810004D01*
X-40131Y1810004D01*
X-29209Y1804670D01*
X-23875Y1788413D01*
X-23875Y1733804D01*
X12191Y1848357D02*
G01*
X17525Y1842770D01*
X23113Y1848357D01*
X17525Y1853692D01*
X12191Y1848357D01*
X17525Y1810004D02*
G01*
X17525Y1733804D01*
X-1425447Y1565910D02*
G01*
X-1428750Y1572513D01*
X-1435100Y1578863D01*
X-1441450Y1581912D01*
X-1454150Y1581912D01*
X-1460500Y1578863D01*
X-1466850Y1572513D01*
X-1469897Y1565910D01*
X-1473200Y1556512D01*
X-1473200Y1540510D01*
X-1469897Y1531112D01*
X-1466850Y1524762D01*
X-1460500Y1518412D01*
X-1454150Y1515110D01*
X-1441450Y1515110D01*
X-1435100Y1518412D01*
X-1428750Y1524762D01*
X-1425447Y1531112D01*
X-1359915Y1572513D02*
G01*
X-1366265Y1578863D01*
X-1375918Y1581912D01*
X-1388618Y1581912D01*
X-1398015Y1578863D01*
X-1404365Y1572513D01*
X-1404365Y1565910D01*
X-1401318Y1559560D01*
X-1398015Y1556512D01*
X-1391665Y1553210D01*
X-1372615Y1546860D01*
X-1366265Y1543812D01*
X-1363218Y1540510D01*
X-1359915Y1534160D01*
X-1359915Y1524762D01*
X-1366265Y1518412D01*
X-1375918Y1515110D01*
X-1388618Y1515110D01*
X-1398015Y1518412D01*
X-1404365Y1524762D01*
X-1338834Y1569212D02*
G01*
X-1332484Y1572513D01*
X-1323086Y1581912D01*
X-1323086Y1515110D01*
X-1172209Y1457452D02*
G01*
X-1178813Y1454150D01*
X-1185163Y1447800D01*
X-1188211Y1441450D01*
X-1188211Y1428750D01*
X-1185163Y1422400D01*
X-1178813Y1416050D01*
X-1172209Y1413002D01*
X-1162811Y1409700D01*
X-1146809Y1409700D01*
X-1137411Y1413002D01*
X-1131061Y1416050D01*
X-1124711Y1422400D01*
X-1121409Y1428750D01*
X-1121409Y1441450D01*
X-1124711Y1447800D01*
X-1131061Y1454150D01*
X-1137411Y1457452D01*
X-1178813Y1522984D02*
G01*
X-1185163Y1516634D01*
X-1188211Y1506981D01*
X-1188211Y1494281D01*
X-1185163Y1484884D01*
X-1178813Y1478534D01*
X-1172209Y1478534D01*
X-1165859Y1481581D01*
X-1162811Y1484884D01*
X-1159509Y1491234D01*
X-1153159Y1510284D01*
X-1150111Y1516634D01*
X-1146809Y1519681D01*
X-1140459Y1522984D01*
X-1131061Y1522984D01*
X-1124711Y1516634D01*
X-1121409Y1506981D01*
X-1121409Y1494281D01*
X-1124711Y1484884D01*
X-1131061Y1478534D01*
X-1172209Y1547113D02*
G01*
X-1175511Y1547113D01*
X-1181861Y1550415D01*
X-1185163Y1553463D01*
X-1188211Y1559813D01*
X-1188211Y1572513D01*
X-1185163Y1578863D01*
X-1181861Y1582165D01*
X-1175511Y1585213D01*
X-1169161Y1585213D01*
X-1162811Y1582165D01*
X-1153159Y1575815D01*
X-1121409Y1544065D01*
X-1121409Y1588515D01*
X-969009Y1457452D02*
G01*
X-975613Y1454150D01*
X-981963Y1447800D01*
X-985011Y1441450D01*
X-985011Y1428750D01*
X-981963Y1422400D01*
X-975613Y1416050D01*
X-969009Y1413002D01*
X-959611Y1409700D01*
X-943609Y1409700D01*
X-934211Y1413002D01*
X-927861Y1416050D01*
X-921511Y1422400D01*
X-918209Y1428750D01*
X-918209Y1441450D01*
X-921511Y1447800D01*
X-927861Y1454150D01*
X-934211Y1457452D01*
X-975613Y1522984D02*
G01*
X-981963Y1516634D01*
X-985011Y1506981D01*
X-985011Y1494281D01*
X-981963Y1484884D01*
X-975613Y1478534D01*
X-969009Y1478534D01*
X-962659Y1481581D01*
X-959611Y1484884D01*
X-956309Y1491234D01*
X-949959Y1510284D01*
X-946911Y1516634D01*
X-943609Y1519681D01*
X-937259Y1522984D01*
X-927861Y1522984D01*
X-921511Y1516634D01*
X-918209Y1506981D01*
X-918209Y1494281D01*
X-921511Y1484884D01*
X-927861Y1478534D01*
X-985011Y1550415D02*
G01*
X-985011Y1585213D01*
X-959611Y1566163D01*
X-959611Y1575815D01*
X-956309Y1582165D01*
X-953261Y1585213D01*
X-943609Y1588515D01*
X-937259Y1588515D01*
X-927861Y1585213D01*
X-921511Y1578863D01*
X-918209Y1569465D01*
X-918209Y1559813D01*
X-921511Y1550415D01*
X-924559Y1547113D01*
X-930909Y1544065D01*
X-730250Y1594612D02*
G01*
X-695197Y1594612D01*
X-714247Y1569212D01*
X-704850Y1569212D01*
X-698500Y1565910D01*
X-695197Y1562862D01*
X-692150Y1553210D01*
X-692150Y1546860D01*
X-695197Y1537462D01*
X-701547Y1531112D01*
X-711200Y1527810D01*
X-720597Y1527810D01*
X-730250Y1531112D01*
X-733297Y1534160D01*
X-736600Y1540510D01*
X-671068Y1594612D02*
G01*
X-645668Y1527810D01*
X-620268Y1594612D02*
G01*
X-645668Y1527810D01*
X-592836Y1594612D02*
G01*
X-557784Y1594612D01*
X-576834Y1569212D01*
X-567436Y1569212D01*
X-561086Y1565910D01*
X-557784Y1562862D01*
X-554481Y1553210D01*
X-554481Y1546860D01*
X-557784Y1537462D01*
X-564134Y1531112D01*
X-573786Y1527810D01*
X-583184Y1527810D01*
X-592836Y1531112D01*
X-595884Y1534160D01*
X-599186Y1540510D01*
X-2357881Y1549400D02*
G01*
X-2357881Y1631187D01*
X-1790700Y2216912D02*
G01*
X-1790700Y2150110D01*
X-1769618Y2216912D02*
G01*
X-1769618Y2150110D01*
X-1769618Y2216912D02*
G01*
X-1725168Y2150110D01*
X-1725168Y2216912D02*
G01*
X-1725168Y2150110D01*
X-1704086Y2204212D02*
G01*
X-1697736Y2207513D01*
X-1688338Y2216912D01*
X-1688338Y2150110D01*
X-1524000Y2204212D02*
G01*
X-1524000Y2137410D01*
X-1502918Y2204212D02*
G01*
X-1502918Y2137410D01*
X-1502918Y2204212D02*
G01*
X-1458468Y2137410D01*
X-1458468Y2204212D02*
G01*
X-1458468Y2137410D01*
X-1434338Y2188210D02*
G01*
X-1434338Y2191512D01*
X-1431036Y2197862D01*
X-1427988Y2201163D01*
X-1421638Y2204212D01*
X-1408938Y2204212D01*
X-1402334Y2201163D01*
X-1399286Y2197862D01*
X-1395984Y2191512D01*
X-1395984Y2185162D01*
X-1399286Y2178812D01*
X-1405636Y2169160D01*
X-1437386Y2137410D01*
X-1392936Y2137410D01*
X-1282700Y2204212D02*
G01*
X-1282700Y2137410D01*
X-1261618Y2204212D02*
G01*
X-1261618Y2137410D01*
X-1261618Y2204212D02*
G01*
X-1217168Y2137410D01*
X-1217168Y2204212D02*
G01*
X-1217168Y2137410D01*
X-1189736Y2204212D02*
G01*
X-1154684Y2204212D01*
X-1173988Y2178812D01*
X-1164336Y2178812D01*
X-1157986Y2175510D01*
X-1154684Y2172462D01*
X-1151636Y2162810D01*
X-1151636Y2156460D01*
X-1154684Y2147062D01*
X-1161034Y2140712D01*
X-1170686Y2137410D01*
X-1180338Y2137410D01*
X-1189736Y2140712D01*
X-1193038Y2143760D01*
X-1196086Y2150110D01*
X-990600Y2204212D02*
G01*
X-990600Y2137410D01*
X-990600Y2204212D02*
G01*
X-949197Y2204212D01*
X-990600Y2172462D02*
G01*
X-965200Y2172462D01*
X-990600Y2137410D02*
G01*
X-949197Y2137410D01*
X-928115Y2204212D02*
G01*
X-928115Y2137410D01*
X-928115Y2204212D02*
G01*
X-883665Y2137410D01*
X-883665Y2204212D02*
G01*
X-883665Y2137410D01*
X-739647Y2188210D02*
G01*
X-742950Y2194813D01*
X-749300Y2201163D01*
X-755650Y2204212D01*
X-768350Y2204212D01*
X-774700Y2201163D01*
X-781050Y2194813D01*
X-784097Y2188210D01*
X-787400Y2178812D01*
X-787400Y2162810D01*
X-784097Y2153412D01*
X-781050Y2147062D01*
X-774700Y2140712D01*
X-768350Y2137410D01*
X-755650Y2137410D01*
X-749300Y2140712D01*
X-742950Y2147062D01*
X-739647Y2153412D01*
X-739647Y2162810D01*
X-755650Y2162810D02*
G01*
X-739647Y2162810D01*
X-718565Y2204212D02*
G01*
X-718565Y2137410D01*
X-718565Y2204212D02*
G01*
X-674115Y2137410D01*
X-674115Y2204212D02*
G01*
X-674115Y2137410D01*
X-653034Y2204212D02*
G01*
X-653034Y2137410D01*
X-653034Y2204212D02*
G01*
X-630936Y2204212D01*
X-621284Y2201163D01*
X-614934Y2194813D01*
X-611886Y2188210D01*
X-608584Y2178812D01*
X-608584Y2162810D01*
X-611886Y2153412D01*
X-614934Y2147062D01*
X-621284Y2140712D01*
X-630936Y2137410D01*
X-653034Y2137410D01*
X-460247Y2188210D02*
G01*
X-463550Y2194813D01*
X-469900Y2201163D01*
X-476250Y2204212D01*
X-488950Y2204212D01*
X-495300Y2201163D01*
X-501650Y2194813D01*
X-504697Y2188210D01*
X-508000Y2178812D01*
X-508000Y2162810D01*
X-504697Y2153412D01*
X-501650Y2147062D01*
X-495300Y2140712D01*
X-488950Y2137410D01*
X-476250Y2137410D01*
X-469900Y2140712D01*
X-463550Y2147062D01*
X-460247Y2153412D01*
X-460247Y2162810D01*
X-476250Y2162810D02*
G01*
X-460247Y2162810D01*
X-439165Y2204212D02*
G01*
X-439165Y2137410D01*
X-439165Y2204212D02*
G01*
X-394715Y2137410D01*
X-394715Y2204212D02*
G01*
X-394715Y2137410D01*
X-373634Y2204212D02*
G01*
X-373634Y2137410D01*
X-373634Y2204212D02*
G01*
X-351536Y2204212D01*
X-341884Y2201163D01*
X-335534Y2194813D01*
X-332486Y2188210D01*
X-329184Y2178812D01*
X-329184Y2162810D01*
X-332486Y2153412D01*
X-335534Y2147062D01*
X-341884Y2140712D01*
X-351536Y2137410D01*
X-373634Y2137410D01*
X-2006600Y-18287D02*
G01*
X-2006600Y-85089D01*
X-2006600Y-18287D02*
G01*
X-1977897Y-18287D01*
X-1968500Y-21336D01*
X-1965197Y-24637D01*
X-1962150Y-30987D01*
X-1962150Y-40639D01*
X-1965197Y-46989D01*
X-1968500Y-50037D01*
X-1977897Y-53339D01*
X-2006600Y-53339D01*
X-1941068Y-18287D02*
G01*
X-1925065Y-85089D01*
X-1909318Y-18287D02*
G01*
X-1925065Y-85089D01*
X-1909318Y-18287D02*
G01*
X-1893315Y-85089D01*
X-1877313Y-18287D02*
G01*
X-1893315Y-85089D01*
X-1856486Y-18287D02*
G01*
X-1856486Y-85089D01*
X-1856486Y-18287D02*
G01*
X-1827784Y-18287D01*
X-1818131Y-21336D01*
X-1815084Y-24637D01*
X-1811781Y-30987D01*
X-1811781Y-37337D01*
X-1815084Y-43687D01*
X-1818131Y-46989D01*
X-1827784Y-50037D01*
X-1856486Y-50037D01*
X-1834134Y-50037D02*
G01*
X-1811781Y-85089D01*
X-266700Y223012D02*
G01*
X-266700Y156210D01*
X-266700Y223012D02*
G01*
X-225297Y223012D01*
X-266700Y191262D02*
G01*
X-241300Y191262D01*
X-204215Y223012D02*
G01*
X-204215Y156210D01*
X-204215Y156210D02*
G01*
X-166115Y156210D01*
X-122936Y223012D02*
G01*
X-122936Y156210D01*
X-145034Y223012D02*
G01*
X-100584Y223012D01*
X-1747011Y1384300D02*
G01*
X-1680209Y1409700D01*
X-1747011Y1435100D02*
G01*
X-1680209Y1409700D01*
X-1731009Y1503934D02*
G01*
X-1737613Y1500631D01*
X-1743963Y1494281D01*
X-1747011Y1487931D01*
X-1747011Y1475231D01*
X-1743963Y1468881D01*
X-1737613Y1462531D01*
X-1731009Y1459484D01*
X-1721611Y1456181D01*
X-1705609Y1456181D01*
X-1696211Y1459484D01*
X-1689861Y1462531D01*
X-1683511Y1468881D01*
X-1680209Y1475231D01*
X-1680209Y1487931D01*
X-1683511Y1494281D01*
X-1689861Y1500631D01*
X-1696211Y1503934D01*
X-1731009Y1572768D02*
G01*
X-1737613Y1569465D01*
X-1743963Y1563115D01*
X-1747011Y1556765D01*
X-1747011Y1544065D01*
X-1743963Y1537715D01*
X-1737613Y1531365D01*
X-1731009Y1528063D01*
X-1721611Y1525015D01*
X-1705609Y1525015D01*
X-1696211Y1528063D01*
X-1689861Y1531365D01*
X-1683511Y1537715D01*
X-1680209Y1544065D01*
X-1680209Y1556765D01*
X-1683511Y1563115D01*
X-1689861Y1569465D01*
X-1696211Y1572768D01*
X-1623059Y1397000D02*
G01*
X-1578609Y1432052D01*
X-1623059Y1432052D02*
G01*
X-1578609Y1397000D01*
X-1645411Y1472184D02*
G01*
X-1642363Y1462531D01*
X-1632711Y1456181D01*
X-1616709Y1452879D01*
X-1607311Y1452879D01*
X-1591309Y1456181D01*
X-1581911Y1462531D01*
X-1578609Y1472184D01*
X-1578609Y1478534D01*
X-1581911Y1487931D01*
X-1591309Y1494281D01*
X-1607311Y1497584D01*
X-1616709Y1497584D01*
X-1632711Y1494281D01*
X-1642363Y1487931D01*
X-1645411Y1478534D01*
X-1645411Y1472184D01*
X-1594611Y1521713D02*
G01*
X-1591309Y1518665D01*
X-1588261Y1521713D01*
X-1591309Y1525015D01*
X-1594611Y1521713D01*
X-1632711Y1545844D02*
G01*
X-1636013Y1552194D01*
X-1645411Y1561845D01*
X-1578609Y1561845D01*
G36*
X-368249Y394919D02*
G01*
X-404215Y369925D01*
X-332232Y368909D01*
G37*
D11*
X-495300Y2133600D02*
G01*
X-304800Y2133600D01*
X-279400Y2108200D01*
X-279400Y1905000D01*
X-304800Y1879600D01*
X-495300Y1879600D01*
D12*
X-441236Y417929D02*
G01*
X-441236Y532927D01*
X-296237Y532927D01*
X-296237Y412927D01*
X-295236Y350928D02*
G01*
X-295236Y226928D01*
X-440235Y226928D01*
X-440235Y350928D01*
X-441236Y532927D02*
G01*
X-441236Y535929D01*
X-421236Y555929D01*
X-319237Y555929D01*
X-316237Y552927D01*
X-296237Y532927D01*
D13*
X-2141778Y238739D02*
G01*
X-2045891Y238739D01*
X-2045891Y370860D01*
X-2141778Y370860D01*
X-2227021Y238739D02*
G01*
X-2322908Y238739D01*
X-2322908Y370860D01*
X-2227021Y370860D01*
X-1864339Y1973021D02*
G01*
X-1864339Y2068908D01*
X-1996460Y2068908D01*
X-1996460Y1973021D01*
X-1864339Y1887778D02*
G01*
X-1864339Y1791891D01*
X-1996460Y1791891D01*
X-1996460Y1887778D01*
X-1951278Y1610339D02*
G01*
X-1855391Y1610339D01*
X-1855391Y1742460D01*
X-1951278Y1742460D01*
X-2036521Y1610339D02*
G01*
X-2132408Y1610339D01*
X-2132408Y1742460D01*
X-2036521Y1742460D01*
X-256560Y351078D02*
G01*
X-256560Y255191D01*
X-124439Y255191D01*
X-124439Y351078D01*
X-256560Y436321D02*
G01*
X-256560Y532208D01*
X-124439Y532208D01*
X-124439Y436321D01*
D11*
X-1791700Y1494599D02*
G01*
X-2551699Y1494599D01*
X-2551699Y494598D01*
X-1791700Y494598D01*
X-1791700Y1494599D01*
D13*
X-1444879Y535759D02*
G01*
X-1730120Y535759D01*
X-1745361Y520519D02*
G01*
X-1745361Y357019D01*
X-1429638Y357019D02*
G01*
X-1429638Y520519D01*
X-1745361Y38280D02*
G01*
X-1745361Y201780D01*
X-1429638Y201780D02*
G01*
X-1429638Y38280D01*
X-1444879Y23040D02*
G01*
X-1730120Y23040D01*
D11*
X-393001Y874422D02*
G01*
X-393001Y954425D01*
X-282026Y843437D02*
G01*
X-362023Y843437D01*
X-282026Y985403D02*
G01*
X-362023Y985403D01*
X-224436Y842855D02*
G01*
X-144437Y842855D01*
X-113454Y873838D02*
G01*
X-113454Y953836D01*
X-224436Y984816D02*
G01*
X-144437Y984816D01*
X-1496722Y635698D02*
G01*
X-1576725Y635698D01*
X-1465737Y746673D02*
G01*
X-1465737Y666676D01*
X-1607703Y746673D02*
G01*
X-1607703Y666676D01*
X-1465155Y804263D02*
G01*
X-1465155Y884262D01*
X-1496138Y915245D02*
G01*
X-1576136Y915245D01*
X-1607116Y804263D02*
G01*
X-1607116Y884262D01*
X-1318922Y800798D02*
G01*
X-1398925Y800798D01*
X-1287937Y911773D02*
G01*
X-1287937Y831776D01*
X-1429903Y911773D02*
G01*
X-1429903Y831776D01*
X-1287355Y969363D02*
G01*
X-1287355Y1049362D01*
X-1318338Y1080345D02*
G01*
X-1398336Y1080345D01*
X-1429316Y969363D02*
G01*
X-1429316Y1049362D01*
X-1360777Y532701D02*
G01*
X-1280774Y532701D01*
X-1391762Y421726D02*
G01*
X-1391762Y501723D01*
X-1249796Y421726D02*
G01*
X-1249796Y501723D01*
X-1392344Y364136D02*
G01*
X-1392344Y284137D01*
X-1361361Y253154D02*
G01*
X-1281363Y253154D01*
X-1250383Y364136D02*
G01*
X-1250383Y284137D01*
X-315622Y1499298D02*
G01*
X-395625Y1499298D01*
X-284637Y1610273D02*
G01*
X-284637Y1530276D01*
X-426603Y1610273D02*
G01*
X-426603Y1530276D01*
X-284055Y1667863D02*
G01*
X-284055Y1747862D01*
X-315038Y1778845D02*
G01*
X-395036Y1778845D01*
X-426016Y1667863D02*
G01*
X-426016Y1747862D01*
D13*
X-436321Y1450360D02*
G01*
X-532208Y1450360D01*
X-532208Y1318239D01*
X-436321Y1318239D01*
X-351078Y1450360D02*
G01*
X-255191Y1450360D01*
X-255191Y1318239D01*
X-351078Y1318239D01*
D11*
X-1382422Y1143698D02*
G01*
X-1462425Y1143698D01*
X-1351437Y1254673D02*
G01*
X-1351437Y1174676D01*
X-1493403Y1254673D02*
G01*
X-1493403Y1174676D01*
X-1350855Y1312263D02*
G01*
X-1350855Y1392262D01*
X-1381838Y1423245D02*
G01*
X-1461836Y1423245D01*
X-1492816Y1312263D02*
G01*
X-1492816Y1392262D01*
D13*
X-1521439Y1172921D02*
G01*
X-1521439Y1268808D01*
X-1653560Y1268808D01*
X-1653560Y1172921D01*
X-1521439Y1087678D02*
G01*
X-1521439Y991791D01*
X-1653560Y991791D01*
X-1653560Y1087678D01*
X-154960Y1163878D02*
G01*
X-154960Y1067991D01*
X-22839Y1067991D01*
X-22839Y1163878D01*
X-154960Y1249121D02*
G01*
X-154960Y1345008D01*
X-22839Y1345008D01*
X-22839Y1249121D01*
X-211378Y594339D02*
G01*
X-115491Y594339D01*
X-115491Y726460D01*
X-211378Y726460D01*
X-296621Y594339D02*
G01*
X-392508Y594339D01*
X-392508Y726460D01*
X-296621Y726460D01*
D11*
X-1189794Y619800D02*
G01*
X-1189794Y589805D01*
X-1150416Y589805D01*
X-729183Y589805D02*
G01*
X-689800Y589805D01*
X-689800Y619800D01*
X-689800Y1259796D02*
G01*
X-689800Y1289799D01*
X-1150416Y1289799D02*
G01*
X-1189794Y1289799D01*
X-1189794Y1289799D02*
G01*
X-1189794Y1259796D01*
X-689800Y1289799D02*
G01*
X-729183Y1289799D01*
X-1282700Y114300D02*
G01*
X-520700Y114300D01*
X-520700Y-139700D01*
X-1282700Y-139700D02*
G01*
X-520700Y-139700D01*
X-1282700Y114300D02*
G01*
X-1282700Y-139700D01*
X-1023856Y114300D02*
G01*
X-1023856Y-139700D01*
X-1831340Y367029D02*
G01*
X-2004060Y367029D01*
X-2004060Y367029D02*
G01*
X-2004060Y219710D01*
X-1831340Y367029D02*
G01*
X-1831340Y219710D01*
X-2004060Y161289D02*
G01*
X-2004060Y44450D01*
X-1831340Y158750D02*
G01*
X-1831340Y44450D01*
X-1831340Y44450D02*
G01*
X-1866900Y8889D01*
X-1968500Y8889D01*
X-2004060Y44450D01*
D14*
X-1877060Y198120D02*
G01*
X-1955800Y198120D01*
X-1916904Y198120D02*
G01*
X-1916904Y180583D01*
D11*
X-495300Y1625600D02*
G01*
X-1816100Y1625600D01*
X-1816100Y2133600D01*
X-495300Y2133600D01*
X-495300Y1625600D01*
X-495300Y1879600D02*
G01*
X-774700Y1879600D01*
X-774700Y2133600D01*
X-495300Y2133600D01*
X-495300Y1879600D01*
D13*
G75*
G01*
X-1429639Y520520D02*
G03*
X-1444879Y535760I-15240J0D01*
G75*
G01*
X-1730121Y535760D02*
G03*
X-1745361Y520520I0J-15240D01*
G75*
G01*
X-1429639Y38280D02*
G02*
X-1444879Y23040I-15240J0D01*
G75*
G01*
X-1730121Y23040D02*
G02*
X-1745361Y38280I0J15240D01*
D11*
G75*
G01*
X-113449Y873839D02*
G02*
X-144432Y842856I-30983J0D01*
G75*
G01*
X-144432Y984822D02*
G02*
X-113449Y953836I0J-30983D01*
G75*
G01*
X-362019Y843437D02*
G02*
X-393001Y874423I0J30983D01*
G75*
G01*
X-393001Y954420D02*
G02*
X-362019Y985403I30982J0D01*
G75*
G01*
X-1496139Y915251D02*
G02*
X-1465156Y884268I0J-30983D01*
G75*
G01*
X-1607122Y884268D02*
G02*
X-1576136Y915251I30983J0D01*
G75*
G01*
X-1465737Y666681D02*
G02*
X-1496723Y635699I-30983J0D01*
G75*
G01*
X-1576720Y635699D02*
G02*
X-1607703Y666681I0J30982D01*
G75*
G01*
X-1318339Y1080351D02*
G02*
X-1287356Y1049368I0J-30983D01*
G75*
G01*
X-1429322Y1049368D02*
G02*
X-1398336Y1080351I30983J0D01*
G75*
G01*
X-1287937Y831781D02*
G02*
X-1318923Y800799I-30983J0D01*
G75*
G01*
X-1398920Y800799D02*
G02*
X-1429903Y831781I0J30982D01*
G75*
G01*
X-1361361Y253149D02*
G02*
X-1392344Y284132I0J30983D01*
G75*
G01*
X-1250378Y284132D02*
G02*
X-1281364Y253149I-30983J0D01*
G75*
G01*
X-1391763Y501719D02*
G02*
X-1360777Y532701I30983J0D01*
G75*
G01*
X-1280780Y532701D02*
G02*
X-1249797Y501719I0J-30982D01*
G75*
G01*
X-315039Y1778851D02*
G02*
X-284056Y1747868I0J-30983D01*
G75*
G01*
X-426022Y1747868D02*
G02*
X-395036Y1778851I30983J0D01*
G75*
G01*
X-284637Y1530281D02*
G02*
X-315623Y1499299I-30983J0D01*
G75*
G01*
X-395620Y1499299D02*
G02*
X-426603Y1530281I0J30982D01*
G75*
G01*
X-1381839Y1423251D02*
G02*
X-1350856Y1392268I0J-30983D01*
G75*
G01*
X-1492822Y1392268D02*
G02*
X-1461836Y1423251I30983J0D01*
G75*
G01*
X-1351437Y1174681D02*
G02*
X-1382423Y1143699I-30983J0D01*
G75*
G01*
X-1462420Y1143699D02*
G02*
X-1493403Y1174681I0J30982D01*
G75*
G01
X-1237107Y1203782D02*
G03X-1237107Y1203782I-11659J0D01*
M02*
