G04 Layer: BottomLayer*
G04 EasyEDA v6.5.57, 2026-08-14 14:16:02*
G04 98996994a3da465494a423476e9be5ad,2865ae9118a24060a17af6d01c9bcc73,10*
G04 Gerber Generator version 0.2*
G04 Scale: 100 percent, Rotated: No, Reflected: No *
G04 Dimensions in millimeters *
G04 leading zeros omitted , absolute positions ,4 integer and 5 decimal *
%FSLAX45Y45*%
%MOMM*%

%ADD10C,0.2540*%
%ADD11C,4.0000*%
%ADD12C,1.5748*%
%ADD13R,1.5748X1.5748*%
%ADD14C,1.7000*%
%ADD15C,0.0183*%
%ADD16C,2.0000*%
%ADD17O,1.999996X2.999994*%
%ADD18C,0.6100*%
%ADD19C,0.6200*%

%LPD*%
G36*
X-2309164Y-126492D02*
G01*
X-2313025Y-125730D01*
X-2316327Y-123494D01*
X-2396794Y-43027D01*
X-2399030Y-39725D01*
X-2399792Y-35864D01*
X-2399792Y654354D01*
X-2399030Y658215D01*
X-2396845Y661466D01*
X-2393594Y663702D01*
X-2389784Y664514D01*
X-2385923Y663803D01*
X-2382570Y661670D01*
X-2380335Y658469D01*
X-2373934Y643890D01*
X-2363774Y625703D01*
X-2351989Y608482D01*
X-2338628Y592429D01*
X-2323896Y577646D01*
X-2307844Y564337D01*
X-2290622Y552551D01*
X-2272385Y542391D01*
X-2253284Y533958D01*
X-2233523Y527304D01*
X-2213203Y522528D01*
X-2192528Y519684D01*
X-2171700Y518718D01*
X-2150872Y519684D01*
X-2130196Y522528D01*
X-2109876Y527304D01*
X-2090115Y533958D01*
X-2071014Y542391D01*
X-2052777Y552551D01*
X-2035556Y564337D01*
X-2019503Y577646D01*
X-2004771Y592429D01*
X-1991410Y608482D01*
X-1979625Y625703D01*
X-1969465Y643890D01*
X-1961032Y662990D01*
X-1954428Y682802D01*
X-1949653Y703072D01*
X-1946757Y723747D01*
X-1945792Y744575D01*
X-1946757Y765454D01*
X-1949653Y786130D01*
X-1954428Y806399D01*
X-1961032Y826211D01*
X-1969465Y845312D01*
X-1979625Y863498D01*
X-1991410Y880719D01*
X-2004771Y896772D01*
X-2019503Y911555D01*
X-2035556Y924864D01*
X-2052777Y936650D01*
X-2071014Y946810D01*
X-2090115Y955243D01*
X-2109876Y961898D01*
X-2130196Y966673D01*
X-2150872Y969518D01*
X-2171700Y970483D01*
X-2192528Y969518D01*
X-2213203Y966673D01*
X-2233523Y961898D01*
X-2253284Y955243D01*
X-2272385Y946810D01*
X-2290622Y936650D01*
X-2307844Y924864D01*
X-2323896Y911555D01*
X-2338628Y896772D01*
X-2351989Y880719D01*
X-2363774Y863498D01*
X-2373934Y845312D01*
X-2380335Y830732D01*
X-2382570Y827532D01*
X-2385923Y825398D01*
X-2389784Y824687D01*
X-2393594Y825500D01*
X-2396845Y827735D01*
X-2399030Y830986D01*
X-2399792Y834847D01*
X-2399792Y2105964D01*
X-2399030Y2109825D01*
X-2396794Y2113127D01*
X-2303627Y2206294D01*
X-2300325Y2208530D01*
X-2296464Y2209292D01*
X-78435Y2209292D01*
X-74574Y2208530D01*
X-71272Y2206294D01*
X47294Y2087727D01*
X49530Y2084425D01*
X50292Y2080564D01*
X50292Y-35864D01*
X49530Y-39725D01*
X47294Y-43027D01*
X-33172Y-123494D01*
X-36474Y-125730D01*
X-40335Y-126492D01*
X-522884Y-126492D01*
X-526846Y-125679D01*
X-530148Y-123444D01*
X-532333Y-120040D01*
X-533044Y-116078D01*
X-532180Y-112166D01*
X-529996Y-107340D01*
X-525475Y-92811D01*
X-522732Y-77876D01*
X-521766Y-62382D01*
X-521766Y36982D01*
X-522732Y52476D01*
X-525475Y67411D01*
X-529996Y81940D01*
X-536244Y95808D01*
X-544118Y108813D01*
X-553466Y120802D01*
X-564235Y131521D01*
X-576173Y140919D01*
X-589178Y148793D01*
X-603046Y154990D01*
X-617575Y159512D01*
X-632510Y162255D01*
X-647700Y163169D01*
X-662889Y162255D01*
X-677824Y159512D01*
X-692353Y154990D01*
X-706221Y148793D01*
X-719226Y140919D01*
X-731164Y131521D01*
X-741934Y120802D01*
X-751281Y108813D01*
X-759155Y95808D01*
X-765454Y81889D01*
X-767638Y78740D01*
X-770890Y76606D01*
X-774700Y75895D01*
X-778510Y76606D01*
X-781761Y78740D01*
X-783945Y81889D01*
X-790244Y95808D01*
X-798118Y108813D01*
X-807466Y120802D01*
X-818235Y131521D01*
X-830173Y140919D01*
X-843178Y148793D01*
X-857046Y154990D01*
X-871575Y159512D01*
X-886510Y162255D01*
X-901700Y163169D01*
X-916889Y162255D01*
X-931824Y159512D01*
X-946353Y154990D01*
X-960221Y148793D01*
X-973226Y140919D01*
X-985164Y131521D01*
X-995934Y120802D01*
X-1005281Y108813D01*
X-1013155Y95808D01*
X-1019454Y81889D01*
X-1021638Y78740D01*
X-1024890Y76606D01*
X-1028700Y75895D01*
X-1032510Y76606D01*
X-1035761Y78740D01*
X-1037945Y81889D01*
X-1044244Y95808D01*
X-1052118Y108813D01*
X-1061466Y120802D01*
X-1072235Y131521D01*
X-1084173Y140919D01*
X-1097178Y148793D01*
X-1111046Y154990D01*
X-1125575Y159512D01*
X-1140510Y162255D01*
X-1155700Y163169D01*
X-1170889Y162255D01*
X-1185824Y159512D01*
X-1200353Y154990D01*
X-1214221Y148793D01*
X-1227226Y140919D01*
X-1239164Y131521D01*
X-1249934Y120802D01*
X-1259281Y108813D01*
X-1267155Y95808D01*
X-1273403Y81940D01*
X-1277924Y67411D01*
X-1280668Y52476D01*
X-1281633Y36982D01*
X-1281633Y-62382D01*
X-1280668Y-77876D01*
X-1277924Y-92811D01*
X-1273403Y-107340D01*
X-1271219Y-112166D01*
X-1270355Y-116078D01*
X-1271066Y-120040D01*
X-1273251Y-123444D01*
X-1276553Y-125679D01*
X-1280515Y-126492D01*
G37*

%LPC*%
G36*
X-454761Y679754D02*
G01*
X-445211Y681024D01*
X-436016Y683818D01*
X-427380Y688187D01*
X-419608Y693928D01*
X-412953Y700887D01*
X-407568Y708863D01*
X-403555Y717651D01*
X-402437Y722122D01*
X-401421Y724611D01*
X-399745Y726744D01*
X-61976Y1064564D01*
X-56845Y1070762D01*
X-53289Y1077468D01*
X-51104Y1084681D01*
X-50292Y1092708D01*
X-50292Y1389380D01*
X-49580Y1393190D01*
X-47447Y1396441D01*
X-44653Y1399387D01*
X-39268Y1407363D01*
X-35255Y1416151D01*
X-32867Y1425498D01*
X-32004Y1435100D01*
X-32867Y1444701D01*
X-35255Y1454048D01*
X-39268Y1462836D01*
X-44653Y1470812D01*
X-51308Y1477772D01*
X-59080Y1483512D01*
X-67716Y1487881D01*
X-76911Y1490675D01*
X-86461Y1491945D01*
X-96113Y1491488D01*
X-105562Y1489456D01*
X-114503Y1485900D01*
X-122732Y1480820D01*
X-129946Y1474470D01*
X-136042Y1466951D01*
X-140716Y1458518D01*
X-143916Y1449425D01*
X-145542Y1439926D01*
X-145542Y1430274D01*
X-143916Y1420774D01*
X-140716Y1411681D01*
X-136042Y1403248D01*
X-129743Y1395526D01*
X-128066Y1392529D01*
X-127508Y1389126D01*
X-127508Y1112418D01*
X-128270Y1108506D01*
X-130505Y1105204D01*
X-440182Y795528D01*
X-442671Y793699D01*
X-445566Y792734D01*
X-448665Y792632D01*
X-454761Y793445D01*
X-464413Y792988D01*
X-473862Y790956D01*
X-482803Y787400D01*
X-491032Y782320D01*
X-498246Y775970D01*
X-504342Y768451D01*
X-509016Y760018D01*
X-512216Y750925D01*
X-513842Y741426D01*
X-513842Y731774D01*
X-512216Y722274D01*
X-509016Y713181D01*
X-504342Y704748D01*
X-498246Y697230D01*
X-491032Y690880D01*
X-482803Y685800D01*
X-473862Y682244D01*
X-464413Y680212D01*
G37*
G36*
X-546100Y870712D02*
G01*
X-536295Y871575D01*
X-526796Y874115D01*
X-517906Y878281D01*
X-509879Y883919D01*
X-502920Y890879D01*
X-497281Y898906D01*
X-493115Y907796D01*
X-490575Y917295D01*
X-489712Y927100D01*
X-490575Y936904D01*
X-493115Y946403D01*
X-497281Y955294D01*
X-502920Y963320D01*
X-504494Y964946D01*
X-506730Y968248D01*
X-507492Y972108D01*
X-507492Y1026617D01*
X-506577Y1030782D01*
X-504088Y1034237D01*
X-500380Y1036319D01*
X-496163Y1036726D01*
X-492099Y1035354D01*
X-489000Y1032459D01*
X-487680Y1030579D01*
X-480720Y1023619D01*
X-472693Y1017981D01*
X-463804Y1013815D01*
X-454304Y1011275D01*
X-444500Y1010412D01*
X-434695Y1011275D01*
X-425196Y1013815D01*
X-416306Y1017981D01*
X-408279Y1023619D01*
X-401320Y1030579D01*
X-395681Y1038606D01*
X-391515Y1047496D01*
X-388975Y1056995D01*
X-388112Y1066800D01*
X-388975Y1076604D01*
X-391515Y1086104D01*
X-395681Y1094994D01*
X-401320Y1103020D01*
X-402894Y1104646D01*
X-405130Y1107948D01*
X-405892Y1111808D01*
X-405892Y1129792D01*
X-406704Y1137818D01*
X-408889Y1145032D01*
X-411581Y1150162D01*
X-412699Y1153617D01*
X-412546Y1157274D01*
X-411073Y1160576D01*
X-408584Y1163218D01*
X-405282Y1164793D01*
X-399796Y1166215D01*
X-390906Y1170381D01*
X-382879Y1176020D01*
X-375920Y1182979D01*
X-370281Y1191006D01*
X-366115Y1199896D01*
X-363575Y1209395D01*
X-362712Y1219200D01*
X-363575Y1229004D01*
X-366115Y1238504D01*
X-370281Y1247394D01*
X-375920Y1255420D01*
X-377494Y1257046D01*
X-379730Y1260348D01*
X-380492Y1264208D01*
X-380492Y1752092D01*
X-381304Y1760118D01*
X-383489Y1767332D01*
X-387045Y1774037D01*
X-392176Y1780235D01*
X-518464Y1906524D01*
X-524662Y1911654D01*
X-531368Y1915210D01*
X-538581Y1917395D01*
X-546608Y1918207D01*
X-809345Y1918207D01*
X-813663Y1919173D01*
X-817168Y1921916D01*
X-819200Y1925929D01*
X-819302Y1930349D01*
X-817473Y1934464D01*
X-808786Y1946097D01*
X-801776Y1958492D01*
X-796442Y1971649D01*
X-792835Y1985416D01*
X-791057Y1999488D01*
X-791057Y2013712D01*
X-792835Y2027783D01*
X-796442Y2041550D01*
X-801776Y2054707D01*
X-808786Y2067102D01*
X-817270Y2078482D01*
X-827125Y2088692D01*
X-838250Y2097532D01*
X-850392Y2104898D01*
X-863396Y2110638D01*
X-877011Y2114702D01*
X-891032Y2116988D01*
X-905256Y2117445D01*
X-919378Y2116074D01*
X-933246Y2112924D01*
X-946607Y2107996D01*
X-959205Y2101443D01*
X-970838Y2093315D01*
X-981354Y2083765D01*
X-990549Y2072944D01*
X-998321Y2061006D01*
X-1004468Y2048205D01*
X-1008938Y2034743D01*
X-1011682Y2020773D01*
X-1012596Y2006600D01*
X-1011682Y1992426D01*
X-1008938Y1978456D01*
X-1004468Y1964994D01*
X-998321Y1952193D01*
X-990549Y1940255D01*
X-986028Y1934972D01*
X-984148Y1931619D01*
X-983640Y1927809D01*
X-984554Y1924100D01*
X-986790Y1921002D01*
X-989990Y1918919D01*
X-993749Y1918207D01*
X-995781Y1918207D01*
X-999693Y1918970D01*
X-1002995Y1921205D01*
X-1046937Y1965147D01*
X-1048969Y1968042D01*
X-1049883Y1971446D01*
X-1049629Y1974900D01*
X-1046835Y1985416D01*
X-1045057Y1999488D01*
X-1045057Y2013712D01*
X-1046835Y2027783D01*
X-1050442Y2041550D01*
X-1055776Y2054707D01*
X-1062786Y2067102D01*
X-1071270Y2078482D01*
X-1081125Y2088692D01*
X-1092250Y2097532D01*
X-1104392Y2104898D01*
X-1117396Y2110638D01*
X-1131011Y2114702D01*
X-1145032Y2116988D01*
X-1159256Y2117445D01*
X-1173378Y2116074D01*
X-1187246Y2112924D01*
X-1200607Y2107996D01*
X-1213205Y2101443D01*
X-1224838Y2093315D01*
X-1235354Y2083765D01*
X-1244549Y2072944D01*
X-1252321Y2061006D01*
X-1258468Y2048205D01*
X-1262938Y2034743D01*
X-1265682Y2020773D01*
X-1266596Y2006600D01*
X-1265682Y1992426D01*
X-1262938Y1978456D01*
X-1258468Y1964994D01*
X-1252321Y1952193D01*
X-1244549Y1940255D01*
X-1240028Y1934972D01*
X-1238148Y1931619D01*
X-1237640Y1927809D01*
X-1238554Y1924100D01*
X-1240790Y1921002D01*
X-1243990Y1918919D01*
X-1247749Y1918207D01*
X-1262481Y1918207D01*
X-1266393Y1918970D01*
X-1269695Y1921205D01*
X-1304239Y1955749D01*
X-1306423Y1959000D01*
X-1307185Y1962861D01*
X-1306474Y1966722D01*
X-1304442Y1971649D01*
X-1300835Y1985416D01*
X-1299057Y1999488D01*
X-1299057Y2013712D01*
X-1300835Y2027783D01*
X-1304442Y2041550D01*
X-1309776Y2054707D01*
X-1316786Y2067102D01*
X-1325270Y2078482D01*
X-1335125Y2088692D01*
X-1346250Y2097532D01*
X-1358392Y2104898D01*
X-1371396Y2110638D01*
X-1385011Y2114702D01*
X-1399032Y2116988D01*
X-1413256Y2117445D01*
X-1427378Y2116074D01*
X-1441246Y2112924D01*
X-1454607Y2107996D01*
X-1467205Y2101443D01*
X-1478838Y2093315D01*
X-1489354Y2083765D01*
X-1498549Y2072944D01*
X-1506321Y2061006D01*
X-1512468Y2048205D01*
X-1516938Y2034743D01*
X-1519682Y2020773D01*
X-1520596Y2006600D01*
X-1519682Y1992426D01*
X-1516938Y1978456D01*
X-1512468Y1964994D01*
X-1506321Y1952193D01*
X-1498549Y1940255D01*
X-1494028Y1934972D01*
X-1492148Y1931619D01*
X-1491640Y1927809D01*
X-1492554Y1924100D01*
X-1494790Y1921002D01*
X-1497990Y1918919D01*
X-1501749Y1918207D01*
X-1516481Y1918207D01*
X-1520393Y1918970D01*
X-1523695Y1921205D01*
X-1558239Y1955749D01*
X-1560423Y1959000D01*
X-1561185Y1962861D01*
X-1560474Y1966722D01*
X-1558442Y1971649D01*
X-1554835Y1985416D01*
X-1553057Y1999488D01*
X-1553057Y2013712D01*
X-1554835Y2027783D01*
X-1558442Y2041550D01*
X-1563776Y2054707D01*
X-1570786Y2067102D01*
X-1579270Y2078482D01*
X-1589125Y2088692D01*
X-1600250Y2097532D01*
X-1612392Y2104898D01*
X-1625396Y2110638D01*
X-1639011Y2114702D01*
X-1653032Y2116988D01*
X-1667256Y2117445D01*
X-1681378Y2116074D01*
X-1695246Y2112924D01*
X-1708607Y2107996D01*
X-1721205Y2101443D01*
X-1732838Y2093315D01*
X-1743354Y2083765D01*
X-1752549Y2072944D01*
X-1760321Y2061006D01*
X-1766468Y2048205D01*
X-1770938Y2034743D01*
X-1773682Y2020773D01*
X-1774596Y2006600D01*
X-1773682Y1992426D01*
X-1770938Y1978456D01*
X-1766468Y1964994D01*
X-1760321Y1952193D01*
X-1752549Y1940255D01*
X-1743354Y1929434D01*
X-1732838Y1919884D01*
X-1721205Y1911756D01*
X-1708607Y1905203D01*
X-1695246Y1900275D01*
X-1681378Y1897125D01*
X-1667256Y1895754D01*
X-1653032Y1896211D01*
X-1639011Y1898497D01*
X-1620062Y1904034D01*
X-1616100Y1903272D01*
X-1612747Y1901037D01*
X-1564335Y1852675D01*
X-1558137Y1847545D01*
X-1551432Y1843989D01*
X-1544218Y1841804D01*
X-1536192Y1840992D01*
X-1501749Y1840992D01*
X-1497990Y1840280D01*
X-1494790Y1838198D01*
X-1492554Y1835099D01*
X-1491640Y1831390D01*
X-1492148Y1827580D01*
X-1494028Y1824228D01*
X-1498549Y1818944D01*
X-1506321Y1807006D01*
X-1512468Y1794205D01*
X-1516938Y1780743D01*
X-1519682Y1766773D01*
X-1520596Y1752600D01*
X-1519682Y1738426D01*
X-1516938Y1724456D01*
X-1512468Y1710994D01*
X-1506321Y1698193D01*
X-1498549Y1686255D01*
X-1489354Y1675434D01*
X-1478838Y1665884D01*
X-1467205Y1657756D01*
X-1454607Y1651203D01*
X-1441246Y1646275D01*
X-1427378Y1643125D01*
X-1413256Y1641754D01*
X-1399032Y1642211D01*
X-1385011Y1644497D01*
X-1371396Y1648510D01*
X-1358392Y1654302D01*
X-1346250Y1661668D01*
X-1337818Y1668373D01*
X-1334465Y1670151D01*
X-1330706Y1670608D01*
X-1327048Y1669592D01*
X-1324000Y1667357D01*
X-1322019Y1664157D01*
X-1321308Y1660448D01*
X-1321308Y1549908D01*
X-1320495Y1541881D01*
X-1318310Y1534668D01*
X-1314754Y1527962D01*
X-1309624Y1521764D01*
X-1005535Y1217676D01*
X-999337Y1212545D01*
X-992632Y1208989D01*
X-985418Y1206804D01*
X-977392Y1205992D01*
X-769518Y1205992D01*
X-765606Y1205230D01*
X-762304Y1202994D01*
X-587705Y1028395D01*
X-585470Y1025093D01*
X-584708Y1021181D01*
X-584708Y972108D01*
X-585470Y968248D01*
X-587705Y964946D01*
X-589280Y963320D01*
X-594918Y955294D01*
X-599084Y946403D01*
X-601624Y936904D01*
X-602488Y927100D01*
X-601624Y917295D01*
X-599084Y907796D01*
X-594918Y898906D01*
X-589280Y890879D01*
X-582320Y883919D01*
X-574294Y878281D01*
X-565404Y874115D01*
X-555904Y871575D01*
G37*
G36*
X-1667256Y1641754D02*
G01*
X-1653032Y1642211D01*
X-1639011Y1644497D01*
X-1625396Y1648510D01*
X-1612392Y1654302D01*
X-1600250Y1661668D01*
X-1589125Y1670507D01*
X-1579270Y1680718D01*
X-1570786Y1692097D01*
X-1563776Y1704492D01*
X-1558442Y1717649D01*
X-1554835Y1731416D01*
X-1553057Y1745488D01*
X-1553057Y1759712D01*
X-1554835Y1773783D01*
X-1558442Y1787550D01*
X-1563776Y1800707D01*
X-1570786Y1813102D01*
X-1579270Y1824482D01*
X-1589125Y1834692D01*
X-1600250Y1843532D01*
X-1612392Y1850898D01*
X-1625396Y1856638D01*
X-1639011Y1860702D01*
X-1653032Y1862988D01*
X-1667256Y1863445D01*
X-1681378Y1862074D01*
X-1695246Y1858924D01*
X-1708607Y1853996D01*
X-1721205Y1847443D01*
X-1732838Y1839315D01*
X-1743354Y1829765D01*
X-1752549Y1818944D01*
X-1760321Y1807006D01*
X-1766468Y1794205D01*
X-1770938Y1780743D01*
X-1773682Y1766773D01*
X-1774596Y1752600D01*
X-1773682Y1738426D01*
X-1770938Y1724456D01*
X-1766468Y1710994D01*
X-1760321Y1698193D01*
X-1752549Y1686255D01*
X-1743354Y1675434D01*
X-1732838Y1665884D01*
X-1721205Y1657756D01*
X-1708607Y1651203D01*
X-1695246Y1646275D01*
X-1681378Y1643125D01*
G37*

%LPD*%
G36*
X-482295Y1227429D02*
G01*
X-486460Y1228090D01*
X-490016Y1230426D01*
X-632764Y1373124D01*
X-638962Y1378254D01*
X-645668Y1381810D01*
X-652881Y1383995D01*
X-660908Y1384808D01*
X-906881Y1384808D01*
X-910793Y1385570D01*
X-914095Y1387805D01*
X-987094Y1460804D01*
X-989330Y1464106D01*
X-990092Y1468018D01*
X-990092Y1660448D01*
X-989330Y1664258D01*
X-987247Y1667510D01*
X-984046Y1669745D01*
X-980236Y1670608D01*
X-976426Y1669999D01*
X-973124Y1667967D01*
X-970838Y1665884D01*
X-959205Y1657756D01*
X-946607Y1651203D01*
X-933246Y1646275D01*
X-919378Y1643125D01*
X-905256Y1641754D01*
X-891032Y1642211D01*
X-877011Y1644497D01*
X-863396Y1648510D01*
X-850392Y1654302D01*
X-838250Y1661668D01*
X-827125Y1670507D01*
X-817270Y1680718D01*
X-808786Y1692097D01*
X-801776Y1704492D01*
X-796442Y1717649D01*
X-792835Y1731416D01*
X-791057Y1745488D01*
X-791057Y1759712D01*
X-792835Y1773783D01*
X-796442Y1787550D01*
X-801776Y1800707D01*
X-808786Y1813102D01*
X-817473Y1824736D01*
X-819302Y1828850D01*
X-819200Y1833270D01*
X-817168Y1837283D01*
X-813663Y1840026D01*
X-809345Y1840992D01*
X-739749Y1840992D01*
X-735990Y1840280D01*
X-732790Y1838198D01*
X-730554Y1835099D01*
X-729640Y1831390D01*
X-730148Y1827580D01*
X-732028Y1824228D01*
X-736549Y1818944D01*
X-744321Y1807006D01*
X-750468Y1794205D01*
X-754938Y1780743D01*
X-757682Y1766773D01*
X-758596Y1752600D01*
X-757682Y1738426D01*
X-754938Y1724456D01*
X-750468Y1710994D01*
X-744321Y1698193D01*
X-736549Y1686255D01*
X-727354Y1675434D01*
X-716838Y1665884D01*
X-705205Y1657756D01*
X-692607Y1651203D01*
X-679246Y1646275D01*
X-665378Y1643125D01*
X-651256Y1641754D01*
X-637032Y1642211D01*
X-623011Y1644497D01*
X-609396Y1648510D01*
X-596392Y1654302D01*
X-584250Y1661668D01*
X-573125Y1670507D01*
X-563270Y1680718D01*
X-554786Y1692097D01*
X-547776Y1704492D01*
X-542442Y1717649D01*
X-538835Y1731416D01*
X-537057Y1745488D01*
X-537057Y1759712D01*
X-538835Y1773783D01*
X-542442Y1787550D01*
X-546709Y1798015D01*
X-547420Y1801875D01*
X-546658Y1805736D01*
X-544423Y1809038D01*
X-541121Y1811223D01*
X-537260Y1811985D01*
X-533400Y1811172D01*
X-530098Y1808988D01*
X-460705Y1739595D01*
X-458470Y1736293D01*
X-457708Y1732381D01*
X-457708Y1264208D01*
X-458470Y1260348D01*
X-460705Y1257046D01*
X-462280Y1255420D01*
X-467918Y1247394D01*
X-472084Y1238504D01*
X-472998Y1234948D01*
X-474929Y1231188D01*
X-478231Y1228547D01*
G37*

%LPD*%
D10*
X-1409700Y2006600D02*
G01*
X-1282700Y1879600D01*
X-1104900Y1879600D01*
X-1028700Y1803400D01*
X-1028700Y1447800D01*
X-927100Y1346200D01*
X-660400Y1346200D01*
X-444500Y1130300D01*
X-444500Y1066800D01*
X-457200Y736600D02*
G01*
X-444500Y736600D01*
X-88900Y1092200D01*
X-88900Y1435100D01*
X-419100Y1219200D02*
G01*
X-419100Y1752600D01*
X-546100Y1879600D01*
X-1016000Y1879600D01*
X-1143000Y2006600D01*
X-1155700Y2006600D01*
X-1663700Y2006600D02*
G01*
X-1536700Y1879600D01*
X-1371600Y1879600D01*
X-1282700Y1790700D01*
X-1282700Y1549400D01*
X-977900Y1244600D01*
X-749300Y1244600D01*
X-546100Y1041400D01*
X-546100Y927100D01*
D11*
G01*
X-2171700Y744601D03*
G01*
X-2171700Y1244600D03*
D12*
G01*
X-647700Y-12700D03*
G01*
X-901700Y-12700D03*
D13*
G01*
X-1155700Y-12700D03*
D14*
G01*
X-1663700Y1752600D03*
G01*
X-1663700Y2006600D03*
G01*
X-1409700Y1752600D03*
G01*
X-1409700Y2006600D03*
G01*
X-1155700Y1752600D03*
G01*
X-1155700Y2006600D03*
G01*
X-901700Y1752600D03*
G01*
X-901700Y2006600D03*
G01*
X-647700Y1752600D03*
D12*
G01*
X-647700Y2006600D03*
D16*
G01*
X-101600Y38100D03*
G01*
X-2197100Y2032000D03*
D12*
G01*
X-393700Y2006600D03*
D16*
G01*
X-2197100Y38100D03*
D17*
G01*
X-1155700Y-12700D03*
G01*
X-901700Y-12700D03*
G01*
X-647700Y-12700D03*
D16*
G01*
X-101600Y2032000D03*
D18*
G01*
X-419100Y1219200D03*
G01*
X-444500Y1066800D03*
G01*
X-546100Y927100D03*
G01*
X-635000Y622300D03*
G01*
X-1206500Y596900D03*
G01*
X-1016000Y279400D03*
G01*
X-787400Y381000D03*
D19*
G01*
X-2260600Y1828800D03*
G01*
X-2260600Y1587500D03*
G01*
X-1257300Y1384300D03*
G01*
X-1587500Y1346200D03*
G01*
X-1790700Y-25400D03*
G01*
X-1409700Y-25400D03*
G01*
X-355600Y-38100D03*
G01*
X-355600Y127000D03*
G01*
X-76200Y355600D03*
G01*
X-76200Y749300D03*
G01*
X-1054100Y1155700D03*
G01*
X-825500Y1155700D03*
G01*
X-1054100Y723900D03*
G01*
X-838200Y723900D03*
G01*
X-1054100Y1003300D03*
G01*
X-838200Y1003300D03*
G01*
X-1054100Y863600D03*
G01*
X-838200Y863600D03*
G01*
X-952500Y1079500D03*
G01*
X-952500Y939800D03*
G01*
X-952500Y812800D03*
G01*
X-1892300Y1422400D03*
G01*
X-1879600Y1117600D03*
G01*
X-1816100Y1270000D03*
G01*
X-1930400Y2146300D03*
G01*
X-2120900Y1511300D03*
G01*
X-1587500Y-25400D03*
G01*
X-2019300Y-25400D03*
G01*
X-88900Y1435100D03*
G01*
X-457200Y736600D03*
G01*
X-520700Y800100D03*
G01*
X-1422400Y1511300D03*
G01*
X-1689100Y863600D03*
G01*
X-2070100Y1828800D03*
G01*
X-1587500Y1536700D03*
G01*
X-1485900Y977900D03*
G01*
X-711200Y1549400D03*
G01*
X-203200Y1524000D03*
G01*
X-215900Y1155700D03*
G01*
X-876300Y1447800D03*
M02*
